G04*
G04 #@! TF.GenerationSoftware,Altium Limited,Altium Designer,20.0.10 (225)*
G04*
G04 Layer_Color=8388736*
%FSLAX25Y25*%
%MOIN*%
G70*
G01*
G75*
%ADD10C,0.00787*%
%ADD12C,0.01000*%
%ADD13C,0.00394*%
%ADD14C,0.00197*%
D10*
X365748Y203937D02*
X385433D01*
X365748D02*
Y233465D01*
X385433D01*
Y203937D02*
Y233465D01*
X189370Y79626D02*
X208268D01*
Y60728D02*
Y79626D01*
X189370Y60728D02*
X208268D01*
X189370D02*
Y79626D01*
X8039Y214835D02*
X62370D01*
Y191213D02*
Y214835D01*
X8039Y191213D02*
X62370D01*
X8039D02*
Y214835D01*
X194650Y125055D02*
Y169937D01*
X175752Y125055D02*
X194650D01*
X175752D02*
Y169937D01*
X194650D01*
X172898Y65354D02*
Y90158D01*
X148094Y65354D02*
X172898D01*
X148094D02*
Y90158D01*
X172898D01*
X77598Y17098D02*
Y41902D01*
X102402D01*
Y17098D02*
Y41902D01*
X77598Y17098D02*
X102402D01*
D12*
X228508Y201630D02*
Y211472D01*
X204886D02*
X228508D01*
X204886Y201630D02*
Y211472D01*
Y201630D02*
X228508D01*
D13*
X0Y0D02*
Y358268D01*
X393701D01*
Y0D02*
Y358268D01*
X0Y0D02*
X393701D01*
X0D02*
X393701D01*
X283122Y153890D02*
X289516D01*
X283122D02*
Y165402D01*
X289516D01*
Y153890D02*
Y165402D01*
X285776Y153890D02*
X289516Y157630D01*
X307776Y214764D02*
X311516Y218504D01*
Y214764D02*
Y226181D01*
X305217D02*
X311516D01*
X305217Y214764D02*
Y226181D01*
Y214764D02*
X311516D01*
X330866Y221654D02*
X334606Y217913D01*
X330866D02*
X342362D01*
Y223031D01*
X330866D02*
X342362D01*
X330866Y217913D02*
Y223031D01*
X256890Y8858D02*
X270669D01*
X256890D02*
Y34449D01*
X270669D01*
Y8858D02*
Y34449D01*
X261614Y8858D02*
X270669Y17913D01*
X264094Y269406D02*
X275905D01*
Y257594D02*
Y269406D01*
X264094Y257594D02*
X275905D01*
X264094D02*
Y269406D01*
Y267437D02*
X266063Y269406D01*
X223807Y308461D02*
X228807Y313461D01*
X223807Y294153D02*
Y313461D01*
Y294153D02*
X239146D01*
Y313461D01*
X223807D02*
X239146D01*
X162823Y275528D02*
X178177D01*
Y241472D02*
Y275528D01*
X162823Y241472D02*
X178177D01*
X162823D02*
Y275528D01*
Y270528D02*
X167823Y275528D01*
X227559Y73622D02*
X242913D01*
Y54331D02*
Y73622D01*
X227559Y54331D02*
X242913D01*
X227559D02*
Y73622D01*
Y68622D02*
X232559Y73622D01*
X349913Y230020D02*
X353496Y233602D01*
Y230020D02*
Y240256D01*
X336661D02*
X353496D01*
X336661Y230020D02*
Y240256D01*
Y230020D02*
X353496D01*
X7717Y295744D02*
X33307D01*
Y235862D02*
Y295744D01*
X7717Y235862D02*
X33307D01*
X7717D02*
Y295744D01*
X385039Y112205D02*
Y162874D01*
X357638Y112205D02*
X385039D01*
X357638D02*
Y162874D01*
X385039D01*
X298819Y5906D02*
Y37402D01*
X342913D01*
Y5906D02*
Y37402D01*
X298819Y5906D02*
X342913D01*
X292421Y167913D02*
Y192717D01*
X342224D01*
Y167913D02*
Y192717D01*
X292421Y167913D02*
X342224D01*
X41063Y259461D02*
X48937D01*
Y254539D02*
Y259461D01*
X41063Y254539D02*
X48937D01*
X41063D02*
Y259461D01*
X327953Y81496D02*
Y84646D01*
Y81496D02*
X334252D01*
Y84646D01*
X327953D02*
X334252D01*
X220634Y173087D02*
X222602Y175055D01*
X220634Y135685D02*
Y175055D01*
Y135685D02*
X260004D01*
Y175055D01*
X220634D02*
X260004D01*
X107346Y68898D02*
X109315Y66929D01*
X107346D02*
X123094D01*
Y82677D01*
X107346D02*
X123094D01*
X107346Y66929D02*
Y82677D01*
X347965Y80610D02*
X349606Y82252D01*
Y80610D02*
Y85532D01*
X341732D02*
X349606D01*
X341732Y80610D02*
Y85532D01*
Y80610D02*
X349606D01*
X288976Y254528D02*
Y261417D01*
X285236Y254528D02*
Y261417D01*
X288976D01*
X285236Y254528D02*
X288976D01*
X195130Y34063D02*
X223870D01*
Y16937D02*
Y34063D01*
X195130Y16937D02*
X223870D01*
X195130D02*
Y34063D01*
Y29535D02*
X199657Y34063D01*
X61614Y64961D02*
Y74803D01*
Y64961D02*
X74213D01*
Y74803D01*
X61614D02*
X74213D01*
X57087Y255728D02*
X66929D01*
Y268327D01*
X57087D02*
X66929D01*
X57087Y255728D02*
Y268327D01*
X269291Y175197D02*
X277165D01*
X269291D02*
Y180118D01*
X277165D01*
Y175197D02*
Y180118D01*
X131220Y294094D02*
Y297244D01*
Y294094D02*
X137520D01*
Y297244D01*
X131220D02*
X137520D01*
X263815Y53122D02*
X303185D01*
X263815D02*
Y82650D01*
X273657Y92492D01*
X293342D01*
X303185Y82650D01*
Y53122D02*
Y82650D01*
X94846Y309945D02*
X99847Y314945D01*
X94846Y295638D02*
Y314945D01*
Y295638D02*
X110185D01*
Y314945D01*
X94846D02*
X110185D01*
X93331Y266653D02*
X98331Y271654D01*
X93331Y252346D02*
Y271654D01*
Y252346D02*
X108669D01*
Y271654D01*
X93331D02*
X108669D01*
X145350Y293791D02*
X151650D01*
X145350D02*
Y305209D01*
X151650D01*
Y293791D02*
Y305209D01*
X147909Y293791D02*
X151650Y297532D01*
X211331Y270153D02*
X216331Y275153D01*
X211331Y255847D02*
Y275153D01*
Y255847D02*
X226669D01*
Y275153D01*
X211331D02*
X226669D01*
X98819Y324410D02*
Y327559D01*
Y324410D02*
X105118D01*
Y327559D01*
X98819D02*
X105118D01*
X75039Y266331D02*
Y274205D01*
X79961D01*
Y266331D02*
Y274205D01*
X75039Y266331D02*
X79961D01*
X75039Y249563D02*
Y257437D01*
X79961D01*
Y249563D02*
Y257437D01*
X75039Y249563D02*
X79961D01*
X125197Y262992D02*
Y266142D01*
X118898D02*
X125197D01*
X118898Y262992D02*
Y266142D01*
Y262992D02*
X125197D01*
X96063Y246457D02*
Y249606D01*
X89764D02*
X96063D01*
X89764Y246457D02*
Y249606D01*
Y246457D02*
X96063D01*
X126260Y311417D02*
Y314567D01*
X119961D02*
X126260D01*
X119961Y311417D02*
Y314567D01*
Y311417D02*
X126260D01*
X119831Y254039D02*
X127705D01*
X119831D02*
Y258961D01*
X127705D01*
Y254039D02*
Y258961D01*
X78858Y296063D02*
Y299213D01*
Y296063D02*
X85158D01*
Y299213D01*
X78858D02*
X85158D01*
X131925Y262012D02*
X135075D01*
X131925Y255713D02*
Y262012D01*
Y255713D02*
X135075D01*
Y262012D01*
X159449Y297244D02*
X162598D01*
Y303543D01*
X159449D02*
X162598D01*
X159449Y297244D02*
Y303543D01*
X150925Y238850D02*
X154075D01*
Y245150D01*
X150925D02*
X154075D01*
X150925Y238850D02*
Y245150D01*
X177425Y230713D02*
X180575D01*
Y237012D01*
X177425D02*
X180575D01*
X177425Y230713D02*
Y237012D01*
X171425Y230713D02*
X174575D01*
Y237012D01*
X171425D02*
X174575D01*
X171425Y230713D02*
Y237012D01*
X146850Y256925D02*
Y260075D01*
Y256925D02*
X153150D01*
Y260075D01*
X146850D02*
X153150D01*
X223850Y277925D02*
Y281075D01*
Y277925D02*
X230150D01*
Y281075D01*
X223850D02*
X230150D01*
X194882Y266929D02*
Y270079D01*
X188583D02*
X194882D01*
X188583Y266929D02*
Y270079D01*
Y266929D02*
X194882D01*
X194787Y260425D02*
Y263575D01*
X188488D02*
X194787D01*
X188488Y260425D02*
Y263575D01*
Y260425D02*
X194787D01*
X221425Y251150D02*
X224575D01*
X221425Y244850D02*
Y251150D01*
Y244850D02*
X224575D01*
Y251150D01*
X211925Y300350D02*
X215075D01*
Y306650D01*
X211925D02*
X215075D01*
X211925Y300350D02*
Y306650D01*
X236350Y288425D02*
Y291575D01*
Y288425D02*
X242650D01*
Y291575D01*
X236350D02*
X242650D01*
X253543Y300689D02*
Y308563D01*
X248622Y300689D02*
X253543D01*
X248622D02*
Y308563D01*
X253543D01*
X252425Y271287D02*
X255575D01*
X252425Y264988D02*
Y271287D01*
Y264988D02*
X255575D01*
Y271287D01*
X292913Y265059D02*
Y268209D01*
X286614D02*
X292913D01*
X286614Y265059D02*
Y268209D01*
Y265059D02*
X292913D01*
X251004Y296358D02*
X258878D01*
Y291437D02*
Y296358D01*
X251004Y291437D02*
X258878D01*
X251004D02*
Y296358D01*
X248961Y253295D02*
Y261169D01*
X244039Y253295D02*
X248961D01*
X244039D02*
Y261169D01*
X248961D01*
X205279Y167378D02*
X208429D01*
X205279Y161079D02*
Y167378D01*
Y161079D02*
X208429D01*
Y167378D01*
X205279Y142772D02*
X208429D01*
X205279Y136472D02*
Y142772D01*
Y136472D02*
X208429D01*
Y142772D01*
X248622Y117835D02*
Y125709D01*
X253543D01*
Y117835D02*
Y125709D01*
X248622Y117835D02*
X253543D01*
X117063Y42461D02*
X124937D01*
Y37539D02*
Y42461D01*
X117063Y37539D02*
X124937D01*
X117063D02*
Y42461D01*
X108925Y46850D02*
X112075D01*
Y53150D01*
X108925D02*
X112075D01*
X108925Y46850D02*
Y53150D01*
X114961Y22063D02*
Y29937D01*
X110039Y22063D02*
X114961D01*
X110039D02*
Y29937D01*
X114961D01*
X258961Y66063D02*
Y73937D01*
X254039Y66063D02*
X258961D01*
X254039D02*
Y73937D01*
X258961D01*
X93350Y79925D02*
Y83075D01*
Y79925D02*
X99650D01*
Y83075D01*
X93350D02*
X99650D01*
X126441Y92008D02*
X129591D01*
Y98307D01*
X126441D02*
X129591D01*
X126441Y92008D02*
Y98307D01*
X214425Y70850D02*
X217575D01*
Y77150D01*
X214425D02*
X217575D01*
X214425Y70850D02*
Y77150D01*
X102819Y97953D02*
X105968D01*
X102819Y91654D02*
Y97953D01*
Y91654D02*
X105968D01*
Y97953D01*
X84925Y74512D02*
X88075D01*
X84925Y68213D02*
Y74512D01*
Y68213D02*
X88075D01*
Y74512D01*
X92213Y88425D02*
Y91575D01*
Y88425D02*
X98512D01*
Y91575D01*
X92213D02*
X98512D01*
X131079Y43386D02*
X140921D01*
Y55984D01*
X131079D02*
X140921D01*
X131079Y43386D02*
Y55984D01*
X190063Y13461D02*
X197937D01*
Y8539D02*
Y13461D01*
X190063Y8539D02*
X197937D01*
X190063D02*
Y13461D01*
X322539Y218602D02*
X325689D01*
Y224902D01*
X322539D02*
X325689D01*
X322539Y218602D02*
Y224902D01*
X210827Y171850D02*
Y175000D01*
X204528D02*
X210827D01*
X204528Y171850D02*
Y175000D01*
Y171850D02*
X210827D01*
X256988Y118799D02*
X260138D01*
Y125098D01*
X256988D02*
X260138D01*
X256988Y118799D02*
Y125098D01*
X293209Y210925D02*
X296358D01*
Y217224D01*
X293209D02*
X296358D01*
X293209Y210925D02*
Y217224D01*
X275787Y168701D02*
Y171850D01*
X269488D02*
X275787D01*
X269488Y168701D02*
Y171850D01*
Y168701D02*
X275787D01*
X223642Y124016D02*
Y127165D01*
Y124016D02*
X229941D01*
Y127165D01*
X223642D02*
X229941D01*
X209449Y124803D02*
X212598D01*
Y131102D01*
X209449D02*
X212598D01*
X209449Y124803D02*
Y131102D01*
X204528Y183465D02*
Y186614D01*
Y183465D02*
X210827D01*
Y186614D01*
X204528D02*
X210827D01*
X282051Y134012D02*
X289925D01*
Y129091D02*
Y134012D01*
X282051Y129091D02*
X289925D01*
X282051D02*
Y134012D01*
Y132370D02*
X283693Y134012D01*
X282445Y144839D02*
X290319D01*
Y139917D02*
Y144839D01*
X282445Y139917D02*
X290319D01*
X282445D02*
Y144839D01*
Y143197D02*
X284087Y144839D01*
X86835Y50382D02*
X90417Y53965D01*
Y50382D02*
Y60618D01*
X73583D02*
X90417D01*
X73583Y50382D02*
Y60618D01*
Y50382D02*
X90417D01*
X130882Y70165D02*
X134465Y66583D01*
X130882D02*
X141118D01*
Y83417D01*
X130882D02*
X141118D01*
X130882Y66583D02*
Y83417D01*
X225835Y85197D02*
X229417Y88779D01*
X225835Y78543D02*
Y88779D01*
Y78543D02*
X242669D01*
Y88779D01*
X225835D02*
X242669D01*
X342126Y64862D02*
X350000D01*
X342126D02*
Y69784D01*
X350000D01*
Y64862D02*
Y69784D01*
X348358Y64862D02*
X350000Y66504D01*
X286221Y23228D02*
X292520D01*
Y20079D02*
Y23228D01*
X286221Y20079D02*
X292520D01*
X286221D02*
Y23228D01*
X334055Y209350D02*
X340354D01*
Y206201D02*
Y209350D01*
X334055Y206201D02*
X340354D01*
X334055D02*
Y209350D01*
X252425Y253000D02*
Y259299D01*
X255575D01*
Y253000D02*
Y259299D01*
X252425Y253000D02*
X255575D01*
X158319Y17252D02*
X162059Y20992D01*
Y17252D02*
Y28748D01*
X156941D02*
X162059D01*
X156941Y17252D02*
Y28748D01*
Y17252D02*
X162059D01*
X98425Y333465D02*
X104724D01*
Y330315D02*
Y333465D01*
X98425Y330315D02*
X104724D01*
X98425D02*
Y333465D01*
X98819Y318110D02*
X105118D01*
X98819D02*
Y321260D01*
X105118D01*
Y318110D02*
Y321260D01*
X40803Y269461D02*
X48677D01*
Y264539D02*
Y269461D01*
X40803Y264539D02*
X48677D01*
X40803D02*
Y269461D01*
X84252Y308421D02*
Y314721D01*
X81102Y308421D02*
X84252D01*
X81102D02*
Y314721D01*
X84252D01*
X110425Y276500D02*
Y282799D01*
X113575D01*
Y276500D02*
Y282799D01*
X110425Y276500D02*
X113575D01*
X98032Y274803D02*
X104331D01*
X98032D02*
Y277953D01*
X104331D01*
Y274803D02*
Y277953D01*
X89961Y276732D02*
Y283032D01*
X93110D01*
Y276732D02*
Y283032D01*
X89961Y276732D02*
X93110D01*
X141732Y255512D02*
Y261811D01*
X138583Y255512D02*
X141732D01*
X138583D02*
Y261811D01*
X141732D01*
Y268504D02*
Y274803D01*
X138583Y268504D02*
X141732D01*
X138583D02*
Y274803D01*
X141732D01*
X152500Y308925D02*
X158799D01*
X152500D02*
Y312075D01*
X158799D01*
Y308925D02*
Y312075D01*
X139500Y308925D02*
X145799D01*
X139500D02*
Y312075D01*
X145799D01*
Y308925D02*
Y312075D01*
X147638Y268504D02*
Y274803D01*
X150787D01*
Y268504D02*
Y274803D01*
X147638Y268504D02*
X150787D01*
X146457Y253937D02*
X152756D01*
Y250787D02*
Y253937D01*
X146457Y250787D02*
X152756D01*
X146457D02*
Y253937D01*
X139850Y242925D02*
X146150D01*
X139850D02*
Y246075D01*
X146150D01*
Y242925D02*
Y246075D01*
X161075Y229850D02*
Y236150D01*
X157925Y229850D02*
X161075D01*
X157925D02*
Y236150D01*
X161075D01*
X164925Y229850D02*
Y236150D01*
X168075D01*
Y229850D02*
Y236150D01*
X164925Y229850D02*
X168075D01*
X188976Y250000D02*
X195276D01*
Y246850D02*
Y250000D01*
X188976Y246850D02*
X195276D01*
X188976D02*
Y250000D01*
X188850Y254425D02*
X195150D01*
X188850D02*
Y257575D01*
X195150D01*
Y254425D02*
Y257575D01*
X217575Y244701D02*
Y251000D01*
X214425Y244701D02*
X217575D01*
X214425D02*
Y251000D01*
X217575D01*
X228350Y248925D02*
X234650D01*
X228350D02*
Y252075D01*
X234650D01*
Y248925D02*
Y252075D01*
X259941Y301476D02*
Y307776D01*
X256791Y301476D02*
X259941D01*
X256791D02*
Y307776D01*
X259941D01*
X236925Y261350D02*
Y267650D01*
X240075D01*
Y261350D02*
Y267650D01*
X236925Y261350D02*
X240075D01*
X262575Y246500D02*
Y252799D01*
X259425Y246500D02*
X262575D01*
X259425D02*
Y252799D01*
X262575D01*
X269575Y246500D02*
Y252799D01*
X266425Y246500D02*
X269575D01*
X266425D02*
Y252799D01*
X269575D01*
X276575Y246500D02*
Y252799D01*
X273425Y246500D02*
X276575D01*
X273425D02*
Y252799D01*
X276575D01*
X301933Y129976D02*
X308232D01*
X301933D02*
Y133126D01*
X308232D01*
Y129976D02*
Y133126D01*
X301933Y140803D02*
X308232D01*
X301933D02*
Y143953D01*
X308232D01*
Y140803D02*
Y143953D01*
X205279Y148284D02*
Y154583D01*
X208429D01*
Y148284D02*
Y154583D01*
X205279Y148284D02*
X208429D01*
X228902Y185685D02*
Y191984D01*
X232051D01*
Y185685D02*
Y191984D01*
X228902Y185685D02*
X232051D01*
X235791D02*
Y191984D01*
X238941D01*
Y185685D02*
Y191984D01*
X235791Y185685D02*
X238941D01*
X221028D02*
Y191984D01*
X224177D01*
Y185685D02*
Y191984D01*
X221028Y185685D02*
X224177D01*
X118000Y50925D02*
X124299D01*
X118000D02*
Y54075D01*
X124299D01*
Y50925D02*
Y54075D01*
X254925Y46350D02*
Y52650D01*
X258075D01*
Y46350D02*
Y52650D01*
X254925Y46350D02*
X258075D01*
X239850Y48075D02*
X246150D01*
Y44925D02*
Y48075D01*
X239850Y44925D02*
X246150D01*
X239850D02*
Y48075D01*
X110425Y91500D02*
Y97799D01*
X113575D01*
Y91500D02*
Y97799D01*
X110425Y91500D02*
X113575D01*
X118567Y91535D02*
Y97835D01*
X121716D01*
Y91535D02*
Y97835D01*
X118567Y91535D02*
X121716D01*
X95075Y68350D02*
Y74650D01*
X91925Y68350D02*
X95075D01*
X91925D02*
Y74650D01*
X95075D01*
X98925Y68350D02*
Y74650D01*
X102075D01*
Y68350D02*
Y74650D01*
X98925Y68350D02*
X102075D01*
X209026Y44805D02*
X215325D01*
X209026D02*
Y47955D01*
X215325D01*
Y44805D02*
Y47955D01*
X224350Y44925D02*
X230650D01*
X224350D02*
Y48075D01*
X230650D01*
Y44925D02*
Y48075D01*
X333268Y65158D02*
Y68307D01*
X326969D02*
X333268D01*
X326969Y65158D02*
Y68307D01*
Y65158D02*
X333268D01*
X37598Y116969D02*
Y167638D01*
X10197Y116969D02*
X37598D01*
X10197D02*
Y167638D01*
X37598D01*
X357185Y196362D02*
X389370D01*
X357185D02*
Y241039D01*
X389370D01*
Y196362D02*
Y241039D01*
X187008Y82638D02*
X210630D01*
Y57717D02*
Y82638D01*
X187008Y57717D02*
X210630D01*
X187008D02*
Y82638D01*
X4102Y225465D02*
X66307D01*
Y178614D02*
Y225465D01*
X4102Y178614D02*
X66307D01*
X4102D02*
Y225465D01*
X285236Y257972D02*
X288976D01*
X287106Y256102D02*
Y259842D01*
X289272Y253248D02*
Y262697D01*
X284941Y253248D02*
Y262697D01*
X289272D01*
X284941Y253248D02*
X289272D01*
X198587Y114032D02*
Y180961D01*
X171815Y114032D02*
X198587D01*
X171815D02*
Y180961D01*
X198587D01*
X176835Y60039D02*
Y95472D01*
X144158Y60039D02*
X176835D01*
X144158D02*
Y95472D01*
X176835D01*
X73661Y11784D02*
Y47216D01*
X106339D01*
Y11784D02*
Y47216D01*
X73661Y11784D02*
X106339D01*
D14*
X277953Y152657D02*
X294685D01*
X277953D02*
Y166634D01*
X294685D01*
Y152657D02*
Y166634D01*
X316634Y213484D02*
Y227461D01*
X300098D02*
X316634D01*
X300098Y213484D02*
Y227461D01*
Y213484D02*
X316634D01*
X329646Y212795D02*
X343583D01*
Y228150D01*
X329646D02*
X343583D01*
X329646Y212795D02*
Y228150D01*
X247047Y7480D02*
X280512D01*
X247047D02*
Y35827D01*
X280512D01*
Y7480D02*
Y35827D01*
X257598Y270587D02*
X282402D01*
Y256413D02*
Y270587D01*
X257598Y256413D02*
X282402D01*
X257598D02*
Y270587D01*
X216811Y292980D02*
Y314634D01*
Y292980D02*
X246142D01*
Y314634D01*
X216811D02*
X246142D01*
X155835Y276709D02*
X185165D01*
Y240291D02*
Y276709D01*
X155835Y240291D02*
X185165D01*
X155835D02*
Y276709D01*
X220571Y74803D02*
X249902D01*
Y53150D02*
Y74803D01*
X220571Y53150D02*
X249902D01*
X220571D02*
Y74803D01*
X357520Y228740D02*
Y241535D01*
X332638D02*
X357520D01*
X332638Y228740D02*
Y241535D01*
Y228740D02*
X357520D01*
X6732Y296728D02*
X34291D01*
Y234878D02*
Y296728D01*
X6732Y234878D02*
X34291D01*
X6732D02*
Y296728D01*
X386024Y111221D02*
Y163858D01*
X356653Y111221D02*
X386024D01*
X356653D02*
Y163858D01*
X386024D01*
X297835Y4921D02*
Y38386D01*
X343898D01*
Y4921D02*
Y38386D01*
X297835Y4921D02*
X343898D01*
X291437Y166929D02*
Y193701D01*
X343209D01*
Y166929D02*
Y193701D01*
X291437Y166929D02*
X343209D01*
X38209Y260740D02*
X51791D01*
Y253260D02*
Y260740D01*
X38209Y253260D02*
X51791D01*
X38209D02*
Y260740D01*
X325394Y80118D02*
Y86024D01*
Y80118D02*
X336811D01*
Y86024D01*
X325394D02*
X336811D01*
X213843Y128894D02*
Y181846D01*
Y128894D02*
X266795D01*
Y181846D01*
X213843D02*
X266795D01*
X104886Y64468D02*
X125555D01*
Y85138D01*
X104886D02*
X125555D01*
X104886Y64468D02*
Y85138D01*
X352953Y78543D02*
Y87598D01*
X338386D02*
X352953D01*
X338386Y78543D02*
Y87598D01*
Y78543D02*
X352953D01*
X191783Y35342D02*
X227217D01*
Y15657D02*
Y35342D01*
X191783Y15657D02*
X227217D01*
X191783D02*
Y35342D01*
X59606Y63937D02*
Y75827D01*
Y63937D02*
X76221D01*
Y75827D01*
X59606D02*
X76221D01*
X56063Y253917D02*
X67953D01*
Y270138D01*
X56063D02*
X67953D01*
X56063Y253917D02*
Y270138D01*
X267461Y174153D02*
X278996D01*
X267461D02*
Y181161D01*
X278996D01*
Y174153D02*
Y181161D01*
X129567Y293228D02*
Y298110D01*
Y293228D02*
X139173D01*
Y298110D01*
X129567D02*
X139173D01*
X261453Y101547D02*
X305547D01*
X261453Y44067D02*
Y101547D01*
Y44067D02*
X305547D01*
Y101547D01*
X87850Y294465D02*
Y316118D01*
Y294465D02*
X117181D01*
Y316118D01*
X87850D02*
X117181D01*
X86335Y251173D02*
Y272827D01*
Y251173D02*
X115665D01*
Y272827D01*
X86335D02*
X115665D01*
X140232Y292512D02*
X156768D01*
X140232D02*
Y306488D01*
X156768D01*
Y292512D02*
Y306488D01*
X204335Y254673D02*
Y276327D01*
Y254673D02*
X233665D01*
Y276327D01*
X204335D02*
X233665D01*
X97165Y323543D02*
Y328425D01*
Y323543D02*
X106772D01*
Y328425D01*
X97165D02*
X106772D01*
X73996Y264500D02*
Y276035D01*
X81004D01*
Y264500D02*
Y276035D01*
X73996Y264500D02*
X81004D01*
X73996Y247732D02*
Y259268D01*
X81004D01*
Y247732D02*
Y259268D01*
X73996Y247732D02*
X81004D01*
X126850Y262126D02*
Y267008D01*
X117244D02*
X126850D01*
X117244Y262126D02*
Y267008D01*
Y262126D02*
X126850D01*
X97716Y245591D02*
Y250472D01*
X88110D02*
X97716D01*
X88110Y245591D02*
Y250472D01*
Y245591D02*
X97716D01*
X127913Y310551D02*
Y315433D01*
X118307D02*
X127913D01*
X118307Y310551D02*
Y315433D01*
Y310551D02*
X127913D01*
X118000Y252996D02*
X129535D01*
X118000D02*
Y260004D01*
X129535D01*
Y252996D02*
Y260004D01*
X77205Y295197D02*
Y300079D01*
Y295197D02*
X86811D01*
Y300079D01*
X77205D02*
X86811D01*
X131059Y263665D02*
X135941D01*
X131059Y254059D02*
Y263665D01*
Y254059D02*
X135941D01*
Y263665D01*
X158583Y295590D02*
X163465D01*
Y305197D01*
X158583D02*
X163465D01*
X158583Y295590D02*
Y305197D01*
X150059Y237197D02*
X154941D01*
Y246803D01*
X150059D02*
X154941D01*
X150059Y237197D02*
Y246803D01*
X176559Y229059D02*
X181441D01*
Y238665D01*
X176559D02*
X181441D01*
X176559Y229059D02*
Y238665D01*
X170559Y229059D02*
X175441D01*
Y238665D01*
X170559D02*
X175441D01*
X170559Y229059D02*
Y238665D01*
X145197Y256059D02*
Y260941D01*
Y256059D02*
X154803D01*
Y260941D01*
X145197D02*
X154803D01*
X222197Y277059D02*
Y281941D01*
Y277059D02*
X231803D01*
Y281941D01*
X222197D02*
X231803D01*
X196535Y266063D02*
Y270945D01*
X186929D02*
X196535D01*
X186929Y266063D02*
Y270945D01*
Y266063D02*
X196535D01*
X196441Y259559D02*
Y264441D01*
X186835D02*
X196441D01*
X186835Y259559D02*
Y264441D01*
Y259559D02*
X196441D01*
X220559Y252803D02*
X225441D01*
X220559Y243197D02*
Y252803D01*
Y243197D02*
X225441D01*
Y252803D01*
X211059Y298697D02*
X215941D01*
Y308303D01*
X211059D02*
X215941D01*
X211059Y298697D02*
Y308303D01*
X234697Y287559D02*
Y292441D01*
Y287559D02*
X244303D01*
Y292441D01*
X234697D02*
X244303D01*
X254587Y298858D02*
Y310394D01*
X247579Y298858D02*
X254587D01*
X247579D02*
Y310394D01*
X254587D01*
X251559Y272941D02*
X256441D01*
X251559Y263335D02*
Y272941D01*
Y263335D02*
X256441D01*
Y272941D01*
X294567Y264193D02*
Y269075D01*
X284961D02*
X294567D01*
X284961Y264193D02*
Y269075D01*
Y264193D02*
X294567D01*
X249173Y297402D02*
X260709D01*
Y290394D02*
Y297402D01*
X249173Y290394D02*
X260709D01*
X249173D02*
Y297402D01*
X250004Y251465D02*
Y263000D01*
X242996Y251465D02*
X250004D01*
X242996D02*
Y263000D01*
X250004D01*
X204413Y169032D02*
X209295D01*
X204413Y159425D02*
Y169032D01*
Y159425D02*
X209295D01*
Y169032D01*
X204413Y144425D02*
X209295D01*
X204413Y134819D02*
Y144425D01*
Y134819D02*
X209295D01*
Y144425D01*
X247579Y116004D02*
Y127539D01*
X254587D01*
Y116004D02*
Y127539D01*
X247579Y116004D02*
X254587D01*
X115232Y43504D02*
X126768D01*
Y36496D02*
Y43504D01*
X115232Y36496D02*
X126768D01*
X115232D02*
Y43504D01*
X108059Y45197D02*
X112941D01*
Y54803D01*
X108059D02*
X112941D01*
X108059Y45197D02*
Y54803D01*
X116004Y20232D02*
Y31768D01*
X108996Y20232D02*
X116004D01*
X108996D02*
Y31768D01*
X116004D01*
X260004Y64232D02*
Y75768D01*
X252996Y64232D02*
X260004D01*
X252996D02*
Y75768D01*
X260004D01*
X91697Y79059D02*
Y83941D01*
Y79059D02*
X101303D01*
Y83941D01*
X91697D02*
X101303D01*
X125575Y90354D02*
X130457D01*
Y99961D01*
X125575D02*
X130457D01*
X125575Y90354D02*
Y99961D01*
X213559Y69197D02*
X218441D01*
Y78803D01*
X213559D02*
X218441D01*
X213559Y69197D02*
Y78803D01*
X101953Y99606D02*
X106835D01*
X101953Y90000D02*
Y99606D01*
Y90000D02*
X106835D01*
Y99606D01*
X84059Y76165D02*
X88941D01*
X84059Y66559D02*
Y76165D01*
Y66559D02*
X88941D01*
Y76165D01*
X90559Y87559D02*
Y92441D01*
Y87559D02*
X100165D01*
Y92441D01*
X90559D02*
X100165D01*
X130055Y41378D02*
X141945D01*
Y57992D01*
X130055D02*
X141945D01*
X130055Y41378D02*
Y57992D01*
X188232Y14504D02*
X199768D01*
Y7496D02*
Y14504D01*
X188232Y7496D02*
X199768D01*
X188232D02*
Y14504D01*
X321673Y216949D02*
X326555D01*
Y226555D01*
X321673D02*
X326555D01*
X321673Y216949D02*
Y226555D01*
X212480Y170984D02*
Y175866D01*
X202874D02*
X212480D01*
X202874Y170984D02*
Y175866D01*
Y170984D02*
X212480D01*
X256122Y117146D02*
X261004D01*
Y126752D01*
X256122D02*
X261004D01*
X256122Y117146D02*
Y126752D01*
X292342Y209272D02*
X297224D01*
Y218878D01*
X292342D02*
X297224D01*
X292342Y209272D02*
Y218878D01*
X277441Y167835D02*
Y172716D01*
X267835D02*
X277441D01*
X267835Y167835D02*
Y172716D01*
Y167835D02*
X277441D01*
X221988Y123150D02*
Y128032D01*
Y123150D02*
X231594D01*
Y128032D01*
X221988D02*
X231594D01*
X208583Y123150D02*
X213465D01*
Y132756D01*
X208583D02*
X213465D01*
X208583Y123150D02*
Y132756D01*
X202874Y182598D02*
Y187480D01*
Y182598D02*
X212480D01*
Y187480D01*
X202874D02*
X212480D01*
X278705Y136079D02*
X293272D01*
Y127024D02*
Y136079D01*
X278705Y127024D02*
X293272D01*
X278705D02*
Y136079D01*
X279098Y146906D02*
X293665D01*
Y137850D02*
Y146906D01*
X279098Y137850D02*
X293665D01*
X279098D02*
Y146906D01*
X94441Y49102D02*
Y61898D01*
X69559D02*
X94441D01*
X69559Y49102D02*
Y61898D01*
Y49102D02*
X94441D01*
X129602Y62559D02*
X142398D01*
Y87441D01*
X129602D02*
X142398D01*
X129602Y62559D02*
Y87441D01*
X221811Y77264D02*
Y90059D01*
Y77264D02*
X246693D01*
Y90059D01*
X221811D02*
X246693D01*
X338779Y62795D02*
X353346D01*
X338779D02*
Y71850D01*
X353346D01*
Y62795D02*
Y71850D01*
X283661Y24606D02*
X295079D01*
Y18701D02*
Y24606D01*
X283661Y18701D02*
X295079D01*
X283661D02*
Y24606D01*
X331496Y210728D02*
X342913D01*
Y204823D02*
Y210728D01*
X331496Y204823D02*
X342913D01*
X331496D02*
Y210728D01*
X251047Y250441D02*
Y261858D01*
X256953D01*
Y250441D02*
Y261858D01*
X251047Y250441D02*
X256953D01*
X167177Y16032D02*
Y29969D01*
X151823D02*
X167177D01*
X151823Y16032D02*
Y29969D01*
Y16032D02*
X167177D01*
X95866Y334842D02*
X107283D01*
Y328937D02*
Y334842D01*
X95866Y328937D02*
X107283D01*
X95866D02*
Y334842D01*
X96260Y316732D02*
X107677D01*
X96260D02*
Y322638D01*
X107677D01*
Y316732D02*
Y322638D01*
X37949Y270740D02*
X51531D01*
Y263260D02*
Y270740D01*
X37949Y263260D02*
X51531D01*
X37949D02*
Y270740D01*
X85630Y305862D02*
Y317280D01*
X79724Y305862D02*
X85630D01*
X79724D02*
Y317280D01*
X85630D01*
X109047Y273941D02*
Y285358D01*
X114953D01*
Y273941D02*
Y285358D01*
X109047Y273941D02*
X114953D01*
X95472Y273425D02*
X106890D01*
X95472D02*
Y279331D01*
X106890D01*
Y273425D02*
Y279331D01*
X88583Y274173D02*
Y285591D01*
X94488D01*
Y274173D02*
Y285591D01*
X88583Y274173D02*
X94488D01*
X143110Y252953D02*
Y264370D01*
X137205Y252953D02*
X143110D01*
X137205D02*
Y264370D01*
X143110D01*
Y265945D02*
Y277362D01*
X137205Y265945D02*
X143110D01*
X137205D02*
Y277362D01*
X143110D01*
X149941Y307547D02*
X161358D01*
X149941D02*
Y313453D01*
X161358D01*
Y307547D02*
Y313453D01*
X136941Y307547D02*
X148358D01*
X136941D02*
Y313453D01*
X148358D01*
Y307547D02*
Y313453D01*
X146260Y265945D02*
Y277362D01*
X152165D01*
Y265945D02*
Y277362D01*
X146260Y265945D02*
X152165D01*
X143898Y255315D02*
X155315D01*
Y249409D02*
Y255315D01*
X143898Y249409D02*
X155315D01*
X143898D02*
Y255315D01*
X137291Y241547D02*
X148709D01*
X137291D02*
Y247453D01*
X148709D01*
Y241547D02*
Y247453D01*
X162453Y227291D02*
Y238709D01*
X156547Y227291D02*
X162453D01*
X156547D02*
Y238709D01*
X162453D01*
X163547Y227291D02*
Y238709D01*
X169453D01*
Y227291D02*
Y238709D01*
X163547Y227291D02*
X169453D01*
X186417Y251378D02*
X197835D01*
Y245472D02*
Y251378D01*
X186417Y245472D02*
X197835D01*
X186417D02*
Y251378D01*
X186291Y253047D02*
X197709D01*
X186291D02*
Y258953D01*
X197709D01*
Y253047D02*
Y258953D01*
X218953Y242142D02*
Y253559D01*
X213047Y242142D02*
X218953D01*
X213047D02*
Y253559D01*
X218953D01*
X225791Y247547D02*
X237209D01*
X225791D02*
Y253453D01*
X237209D01*
Y247547D02*
Y253453D01*
X261319Y298917D02*
Y310335D01*
X255413Y298917D02*
X261319D01*
X255413D02*
Y310335D01*
X261319D01*
X235547Y258791D02*
Y270209D01*
X241453D01*
Y258791D02*
Y270209D01*
X235547Y258791D02*
X241453D01*
X263953Y243941D02*
Y255358D01*
X258047Y243941D02*
X263953D01*
X258047D02*
Y255358D01*
X263953D01*
X270953Y243941D02*
Y255358D01*
X265047Y243941D02*
X270953D01*
X265047D02*
Y255358D01*
X270953D01*
X277953Y243941D02*
Y255358D01*
X272047Y243941D02*
X277953D01*
X272047D02*
Y255358D01*
X277953D01*
X299374Y128598D02*
X310791D01*
X299374D02*
Y134504D01*
X310791D01*
Y128598D02*
Y134504D01*
X299374Y139425D02*
X310791D01*
X299374D02*
Y145331D01*
X310791D01*
Y139425D02*
Y145331D01*
X203902Y145724D02*
Y157142D01*
X209807D01*
Y145724D02*
Y157142D01*
X203902Y145724D02*
X209807D01*
X227524Y183126D02*
Y194543D01*
X233429D01*
Y183126D02*
Y194543D01*
X227524Y183126D02*
X233429D01*
X234413D02*
Y194543D01*
X240319D01*
Y183126D02*
Y194543D01*
X234413Y183126D02*
X240319D01*
X219650D02*
Y194543D01*
X225555D01*
Y183126D02*
Y194543D01*
X219650Y183126D02*
X225555D01*
X115441Y49547D02*
X126858D01*
X115441D02*
Y55453D01*
X126858D01*
Y49547D02*
Y55453D01*
X253547Y43791D02*
Y55209D01*
X259453D01*
Y43791D02*
Y55209D01*
X253547Y43791D02*
X259453D01*
X237291Y49453D02*
X248709D01*
Y43547D02*
Y49453D01*
X237291Y43547D02*
X248709D01*
X237291D02*
Y49453D01*
X109047Y88941D02*
Y100358D01*
X114953D01*
Y88941D02*
Y100358D01*
X109047Y88941D02*
X114953D01*
X117189Y88976D02*
Y100394D01*
X123094D01*
Y88976D02*
Y100394D01*
X117189Y88976D02*
X123094D01*
X96453Y65791D02*
Y77209D01*
X90547Y65791D02*
X96453D01*
X90547D02*
Y77209D01*
X96453D01*
X97547Y65791D02*
Y77209D01*
X103453D01*
Y65791D02*
Y77209D01*
X97547Y65791D02*
X103453D01*
X206467Y43427D02*
X217884D01*
X206467D02*
Y49333D01*
X217884D01*
Y43427D02*
Y49333D01*
X221791Y43547D02*
X233209D01*
X221791D02*
Y49453D01*
X233209D01*
Y43547D02*
Y49453D01*
X335827Y63779D02*
Y69685D01*
X324410D02*
X335827D01*
X324410Y63779D02*
Y69685D01*
Y63779D02*
X335827D01*
X38583Y115984D02*
Y168622D01*
X9213Y115984D02*
X38583D01*
X9213D02*
Y168622D01*
X38583D01*
M02*
