G04*
G04 #@! TF.GenerationSoftware,Altium Limited,Altium Designer,20.0.10 (225)*
G04*
G04 Layer_Color=65535*
%FSLAX25Y25*%
%MOIN*%
G70*
G01*
G75*
%ADD10C,0.00787*%
%ADD11C,0.00984*%
%ADD12C,0.01000*%
%ADD13C,0.00394*%
%ADD14C,0.00197*%
G36*
X362728Y325946D02*
X365928D01*
Y325147D01*
X369128D01*
Y324346D01*
X370728D01*
Y323547D01*
X372328D01*
Y322746D01*
X373928D01*
Y321947D01*
X374728D01*
Y321146D01*
X375528D01*
Y320346D01*
X376328D01*
Y319547D01*
X377128D01*
Y318746D01*
X377928D01*
Y317947D01*
Y317146D01*
X379528D01*
Y316347D01*
Y315546D01*
X380328D01*
Y314746D01*
Y313947D01*
X381128D01*
Y313146D01*
Y312347D01*
Y311546D01*
X381928D01*
Y310747D01*
X382728D01*
Y309946D01*
Y309146D01*
Y308347D01*
Y307546D01*
Y306747D01*
Y305946D01*
X383528D01*
Y305147D01*
Y304346D01*
Y303547D01*
Y302747D01*
Y301946D01*
Y301147D01*
Y300346D01*
Y299547D01*
X382728D01*
Y298746D01*
Y297947D01*
Y297147D01*
Y296346D01*
Y295547D01*
Y294746D01*
X381928D01*
Y293947D01*
X381128D01*
Y293146D01*
Y292347D01*
Y291547D01*
X380328D01*
Y290746D01*
X379528D01*
Y289947D01*
Y289146D01*
X351528D01*
Y289947D01*
Y290746D01*
X350728D01*
Y291547D01*
Y292347D01*
Y293146D01*
Y293947D01*
X347528D01*
Y293146D01*
Y292347D01*
X346728D01*
Y293146D01*
Y293947D01*
Y294746D01*
Y295547D01*
Y296346D01*
Y297147D01*
Y297947D01*
X345928D01*
Y298746D01*
Y299547D01*
Y300346D01*
Y301147D01*
Y301946D01*
Y302747D01*
Y303547D01*
Y304346D01*
Y305147D01*
Y305946D01*
Y306747D01*
Y307546D01*
Y308347D01*
Y309146D01*
Y309946D01*
Y310747D01*
Y311546D01*
X344328D01*
Y312347D01*
X341928D01*
Y311546D01*
Y310747D01*
Y309946D01*
Y309146D01*
Y308347D01*
X341128D01*
Y307546D01*
Y306747D01*
Y305946D01*
Y305147D01*
Y304346D01*
Y303547D01*
Y302747D01*
Y301946D01*
Y301147D01*
X340328D01*
Y300346D01*
Y299547D01*
Y298746D01*
Y297947D01*
Y297147D01*
Y296346D01*
Y295547D01*
Y294746D01*
Y293947D01*
Y293146D01*
Y292347D01*
Y291547D01*
Y290746D01*
Y289947D01*
Y289146D01*
Y288347D01*
X339528D01*
Y287546D01*
Y286747D01*
Y285946D01*
Y285146D01*
Y284347D01*
Y283546D01*
Y282747D01*
Y281946D01*
Y281147D01*
Y280346D01*
Y279546D01*
Y278747D01*
Y277946D01*
X338728D01*
Y278747D01*
Y279546D01*
Y280346D01*
Y281147D01*
Y281946D01*
Y282747D01*
Y283546D01*
Y284347D01*
Y285146D01*
Y285946D01*
Y286747D01*
Y287546D01*
Y288347D01*
Y289146D01*
X337928D01*
Y289947D01*
X337128D01*
Y290746D01*
X334728D01*
Y289947D01*
Y289146D01*
X333928D01*
Y288347D01*
X333128D01*
Y289146D01*
Y289947D01*
X332328D01*
Y290746D01*
X329928D01*
Y289947D01*
Y289146D01*
X329128D01*
Y288347D01*
X302728D01*
Y289146D01*
Y289947D01*
Y290746D01*
X301928D01*
Y291547D01*
X301128D01*
Y292347D01*
Y293146D01*
Y293947D01*
X300328D01*
Y294746D01*
X299528D01*
Y295547D01*
Y296346D01*
Y297147D01*
Y297947D01*
Y298746D01*
Y299547D01*
X298728D01*
Y300346D01*
Y301147D01*
Y301946D01*
Y302747D01*
Y303547D01*
Y304346D01*
Y305147D01*
Y305946D01*
X299528D01*
Y306747D01*
Y307546D01*
Y308347D01*
Y309146D01*
Y309946D01*
Y310747D01*
X300328D01*
Y311546D01*
X301128D01*
Y312347D01*
Y313146D01*
Y313947D01*
X301928D01*
Y314746D01*
X302728D01*
Y315546D01*
Y316347D01*
Y317146D01*
X304328D01*
Y317947D01*
Y318746D01*
X305128D01*
Y319547D01*
X305928D01*
Y320346D01*
X306728D01*
Y321146D01*
X307528D01*
Y321947D01*
X308328D01*
Y322746D01*
X309928D01*
Y323547D01*
X311528D01*
Y324346D01*
X313128D01*
Y325147D01*
X316328D01*
Y325946D01*
X318728D01*
Y326747D01*
X324328D01*
Y325946D01*
X327528D01*
Y325147D01*
X330728D01*
Y324346D01*
X331528D01*
Y323547D01*
X333928D01*
Y322746D01*
X334728D01*
Y321947D01*
X335528D01*
Y321146D01*
X336328D01*
Y320346D01*
X337928D01*
Y319547D01*
Y318746D01*
X338728D01*
Y317947D01*
X339528D01*
Y317146D01*
X340328D01*
Y316347D01*
X341928D01*
Y317146D01*
X342728D01*
Y317947D01*
X343528D01*
Y318746D01*
X344328D01*
Y319547D01*
X345128D01*
Y320346D01*
X345928D01*
Y321146D01*
X346728D01*
Y321947D01*
X347528D01*
Y322746D01*
X348328D01*
Y323547D01*
X350728D01*
Y324346D01*
X351528D01*
Y325147D01*
X355528D01*
Y325946D01*
X357928D01*
Y326747D01*
X362728D01*
Y325946D01*
D02*
G37*
G36*
X344328Y288347D02*
Y287546D01*
Y286747D01*
Y285946D01*
X345128D01*
Y285146D01*
X348328D01*
Y285946D01*
X352328D01*
Y285146D01*
X353128D01*
Y285946D01*
X356328D01*
Y285146D01*
X357128D01*
Y285946D01*
X357928D01*
Y285146D01*
X359528D01*
Y285946D01*
X360328D01*
Y285146D01*
X361128D01*
Y285946D01*
X361928D01*
Y285146D01*
X367528D01*
Y285946D01*
X368328D01*
Y285146D01*
X370728D01*
Y285946D01*
X372328D01*
Y285146D01*
X377128D01*
Y284347D01*
X375528D01*
Y283546D01*
Y282747D01*
X374728D01*
Y281946D01*
X373928D01*
Y281147D01*
X373128D01*
Y280346D01*
Y279546D01*
X372328D01*
Y278747D01*
X371528D01*
Y277946D01*
X370728D01*
Y277147D01*
X369928D01*
Y276346D01*
X369128D01*
Y275547D01*
X368328D01*
Y274746D01*
X367528D01*
Y273946D01*
X366728D01*
Y273147D01*
X365928D01*
Y272346D01*
X365128D01*
Y271547D01*
X364328D01*
Y270746D01*
X363528D01*
Y269947D01*
X362728D01*
Y269146D01*
X361128D01*
Y268347D01*
X360328D01*
Y267547D01*
X359528D01*
Y266746D01*
X358728D01*
Y265947D01*
X357928D01*
Y265146D01*
X357128D01*
Y264347D01*
X356328D01*
Y263546D01*
X355528D01*
Y262747D01*
X353928D01*
Y261947D01*
X353128D01*
Y261146D01*
X352328D01*
Y260347D01*
X350728D01*
Y259546D01*
X349928D01*
Y258747D01*
X349128D01*
Y257946D01*
X348328D01*
Y257147D01*
X347528D01*
Y256347D01*
X345928D01*
Y255546D01*
X345128D01*
Y254747D01*
X343528D01*
Y253946D01*
X342728D01*
Y253147D01*
X341928D01*
Y252346D01*
X340328D01*
Y253147D01*
X339528D01*
Y253946D01*
X338728D01*
Y254747D01*
X337128D01*
Y255546D01*
X336328D01*
Y256347D01*
X334728D01*
Y257147D01*
X333928D01*
Y257946D01*
X333128D01*
Y258747D01*
X332328D01*
Y259546D01*
X331528D01*
Y260347D01*
X329928D01*
Y261146D01*
X329128D01*
Y261947D01*
X327528D01*
Y262747D01*
X326728D01*
Y263546D01*
X325928D01*
Y264347D01*
X325128D01*
Y265146D01*
X324328D01*
Y265947D01*
X323528D01*
Y266746D01*
X322728D01*
Y267547D01*
X321928D01*
Y268347D01*
X321128D01*
Y269146D01*
X319528D01*
Y269947D01*
X318728D01*
Y270746D01*
X317928D01*
Y271547D01*
X317128D01*
Y272346D01*
X316328D01*
Y273147D01*
X315528D01*
Y273946D01*
X314728D01*
Y274746D01*
X313928D01*
Y275547D01*
X313128D01*
Y276346D01*
X312328D01*
Y277147D01*
X311528D01*
Y277946D01*
X310728D01*
Y278747D01*
X309928D01*
Y279546D01*
X309128D01*
Y280346D01*
Y281147D01*
X308328D01*
Y281946D01*
X307528D01*
Y282747D01*
X306728D01*
Y283546D01*
Y284347D01*
X305128D01*
Y285146D01*
X330728D01*
Y285946D01*
X331528D01*
Y285146D01*
Y284347D01*
X335528D01*
Y283546D01*
Y282747D01*
Y281946D01*
Y281147D01*
Y280346D01*
X336328D01*
Y279546D01*
Y278747D01*
Y277946D01*
Y277147D01*
Y276346D01*
Y275547D01*
Y274746D01*
Y273946D01*
Y273147D01*
Y272346D01*
Y271547D01*
Y270746D01*
Y269947D01*
Y269146D01*
Y268347D01*
X337128D01*
Y267547D01*
Y266746D01*
Y265947D01*
Y265146D01*
X337928D01*
Y264347D01*
X338728D01*
Y263546D01*
X340328D01*
Y264347D01*
Y265146D01*
X341128D01*
Y265947D01*
Y266746D01*
Y267547D01*
X341928D01*
Y268347D01*
Y269146D01*
Y269947D01*
Y270746D01*
Y271547D01*
Y272346D01*
Y273147D01*
Y273946D01*
Y274746D01*
Y275547D01*
Y276346D01*
Y277147D01*
Y277946D01*
X342728D01*
Y278747D01*
Y279546D01*
Y280346D01*
Y281147D01*
Y281946D01*
Y282747D01*
Y283546D01*
Y284347D01*
X343528D01*
Y285146D01*
Y285946D01*
Y286747D01*
Y287546D01*
Y288347D01*
Y289146D01*
X344328D01*
Y288347D01*
D02*
G37*
D10*
X361910Y213583D02*
G03*
X361122Y213583I-394J0D01*
G01*
D02*
G03*
X361910Y213583I394J0D01*
G01*
X56858Y182945D02*
G03*
X56071Y182945I-394J0D01*
G01*
D02*
G03*
X56858Y182945I394J0D01*
G01*
X284842Y153890D02*
X287795D01*
X284842D02*
Y165402D01*
X287795D01*
Y153890D02*
Y165402D01*
X289173Y153347D02*
X293701D01*
X310925Y214567D02*
X315650D01*
X309547Y214764D02*
Y226181D01*
X307185D02*
X309547D01*
X307185Y214764D02*
Y226181D01*
Y214764D02*
X309547D01*
X330709Y213779D02*
Y218898D01*
X330866Y220276D02*
X342362D01*
Y220669D01*
X330866D02*
X342362D01*
X330866Y220276D02*
Y220669D01*
X256890Y8858D02*
X270669D01*
X256890D02*
Y34449D01*
X270669D01*
Y8858D02*
Y34449D01*
X273622Y9449D02*
X279528D01*
X265472Y269406D02*
X274528D01*
Y257594D02*
Y269406D01*
X265472Y257594D02*
X274528D01*
X265472D02*
Y269406D01*
X258583D02*
X264094D01*
X217795Y313965D02*
X223807D01*
X225185Y294153D02*
Y313461D01*
Y294153D02*
X237768D01*
Y313461D01*
X225185D02*
X237768D01*
X164201Y275528D02*
X176799D01*
Y241472D02*
Y275528D01*
X164201Y241472D02*
X176799D01*
X164201D02*
Y275528D01*
X156819Y276157D02*
X162823D01*
X221555Y74134D02*
X227559D01*
X336661Y240256D02*
X353496D01*
X336661Y230020D02*
X356929D01*
X7717Y235862D02*
Y285980D01*
Y235862D02*
X33307D01*
Y295744D01*
X15748D02*
X33307D01*
X385039Y112205D02*
Y153032D01*
X357638Y112205D02*
X385039D01*
X357638D02*
Y162874D01*
X375000D01*
X311024Y5906D02*
X342913D01*
Y37402D01*
X298819D02*
X342913D01*
X298819Y21654D02*
Y37402D01*
X301575Y167913D02*
X342224D01*
Y192717D01*
X292421D02*
X342224D01*
X292421Y176378D02*
Y192717D01*
X45000Y254933D02*
Y259067D01*
X331102Y81890D02*
Y84252D01*
X222012Y137063D02*
Y173677D01*
Y137063D02*
X258626D01*
Y173677D01*
X222012D02*
X258626D01*
X342126Y87205D02*
X352559D01*
Y78937D02*
Y87205D01*
X342126Y78937D02*
X352559D01*
X285728Y252461D02*
X288484D01*
X192768Y34063D02*
X223870D01*
X195130Y16937D02*
X223870D01*
X67913Y65354D02*
Y74409D01*
X57480Y262028D02*
X66535D01*
X263815Y53122D02*
Y82650D01*
X303185Y53122D02*
Y99579D01*
X88835Y315449D02*
X94846D01*
X96224Y295638D02*
Y314945D01*
Y295638D02*
X108807D01*
Y314945D01*
X96224D02*
X108807D01*
X87319Y272158D02*
X93331D01*
X94709Y252346D02*
Y271654D01*
Y252346D02*
X107291D01*
Y271654D01*
X94709D02*
X107291D01*
X147319Y293791D02*
X149681D01*
X147319D02*
Y305209D01*
X149681D01*
Y293791D02*
Y305209D01*
X151059Y293595D02*
X155783D01*
X205319Y275658D02*
X211331D01*
X212709Y255847D02*
Y275153D01*
Y255847D02*
X225291D01*
Y275153D01*
X212709D02*
X225291D01*
X131472Y49685D02*
X140528D01*
X279098Y135685D02*
X289531D01*
X279098Y127417D02*
Y135685D01*
Y127417D02*
X289531D01*
X279492Y146512D02*
X289925D01*
X279492Y138244D02*
Y146512D01*
Y138244D02*
X289925D01*
X73583Y60618D02*
X90417D01*
X73583Y50382D02*
X93850D01*
X141118Y66583D02*
Y83417D01*
X130882Y63150D02*
Y83417D01*
X225835Y78543D02*
X242669D01*
X222402Y88779D02*
X242669D01*
X342520Y63189D02*
X352953D01*
Y71457D01*
X342520D02*
X352953D01*
X289370Y20472D02*
Y22835D01*
X337205Y206594D02*
Y208957D01*
X252819Y256150D02*
X255181D01*
X161075Y17095D02*
X166193D01*
X159697Y17252D02*
Y28748D01*
X159303D02*
X159697D01*
X159303Y17252D02*
Y28748D01*
Y17252D02*
X159697D01*
X101575Y330709D02*
Y333071D01*
X101969Y318504D02*
Y320866D01*
X44740Y264933D02*
Y269067D01*
X81496Y311571D02*
X83858D01*
X110819Y279650D02*
X113181D01*
X101181Y275197D02*
Y277559D01*
X90354Y279882D02*
X92716D01*
X138976Y258661D02*
X141339D01*
X138976Y271654D02*
X141339D01*
X155650Y309319D02*
Y311681D01*
X142650Y309319D02*
Y311681D01*
X148031Y271654D02*
X150394D01*
X149606Y251181D02*
Y253543D01*
X143000Y243319D02*
Y245681D01*
X158319Y233000D02*
X160681D01*
X165319D02*
X167681D01*
X192126Y247244D02*
Y249606D01*
X192000Y254819D02*
Y257181D01*
X214819Y247850D02*
X217181D01*
X231500Y249319D02*
Y251681D01*
X257185Y304626D02*
X259547D01*
X237319Y264500D02*
X239681D01*
X259819Y249650D02*
X262181D01*
X266819D02*
X269181D01*
X273819D02*
X276181D01*
X305083Y130370D02*
Y132732D01*
Y141197D02*
Y143559D01*
X205673Y151433D02*
X208035D01*
X229295Y188835D02*
X231658D01*
X236185D02*
X238547D01*
X221421D02*
X223783D01*
X121150Y51319D02*
Y53681D01*
X255319Y49500D02*
X257681D01*
X243000Y45319D02*
Y47681D01*
X110819Y94650D02*
X113181D01*
X118961Y94685D02*
X121323D01*
X92319Y71500D02*
X94681D01*
X99319D02*
X101681D01*
X212175Y45199D02*
Y47561D01*
X227500Y45319D02*
Y47681D01*
X330118Y65551D02*
Y67913D01*
X37598Y116969D02*
Y157795D01*
X10197Y116969D02*
X37598D01*
X10197D02*
Y167638D01*
X27559D01*
X365748Y203937D02*
X385433D01*
X365748D02*
Y233465D01*
X385433D01*
Y203937D02*
Y233465D01*
X189370Y79626D02*
X208268D01*
Y60728D02*
Y79626D01*
X189370Y60728D02*
X208268D01*
X189370D02*
Y79626D01*
X8039Y214835D02*
X62370D01*
Y191213D02*
Y214835D01*
X8039Y191213D02*
X62370D01*
X8039D02*
Y214835D01*
X194650Y125055D02*
Y169937D01*
X175752Y125055D02*
X194650D01*
X175752D02*
Y169937D01*
X194650D01*
X172898Y65354D02*
Y90158D01*
X148094Y65354D02*
X172898D01*
X148094D02*
Y90158D01*
X172898D01*
X77598Y17098D02*
Y41902D01*
X102402D01*
Y17098D02*
Y41902D01*
X77598Y17098D02*
X102402D01*
D11*
X216303Y173087D02*
G03*
X216303Y173087I-492J0D01*
G01*
X107839Y65453D02*
G03*
X107839Y65453I-492J0D01*
G01*
D12*
X227215Y216791D02*
G03*
X227215Y216791I-325J0D01*
G01*
X226390Y211472D02*
X228508D01*
X204886D02*
X206933D01*
X212760D02*
X220634D01*
X204886Y201630D02*
X213902D01*
X204886D02*
Y211472D01*
X219646Y201630D02*
X228508D01*
Y211472D01*
X63992Y163104D02*
Y155232D01*
X67928D01*
X69240Y156544D01*
Y161792D01*
X67928Y163104D01*
X63992D01*
X71864Y155232D02*
X74487D01*
X73176D01*
Y160480D01*
X71864D01*
X78423Y155232D02*
Y160480D01*
X82359D01*
X83671Y159168D01*
Y155232D01*
X87607D02*
X90230D01*
X91542Y156544D01*
Y159168D01*
X90230Y160480D01*
X87607D01*
X86295Y159168D01*
Y156544D01*
X87607Y155232D01*
X107285Y161792D02*
X105973Y163104D01*
X103349D01*
X102038Y161792D01*
Y156544D01*
X103349Y155232D01*
X105973D01*
X107285Y156544D01*
X109909Y155232D02*
X112533D01*
X111221D01*
Y160480D01*
X109909D01*
X116469Y155232D02*
Y160480D01*
X120404D01*
X121716Y159168D01*
Y155232D01*
X129588Y163104D02*
Y155232D01*
X125652D01*
X124340Y156544D01*
Y159168D01*
X125652Y160480D01*
X129588D01*
X132212D02*
Y155232D01*
Y157856D01*
X133523Y159168D01*
X134835Y160480D01*
X136147D01*
X140083Y155232D02*
X142707D01*
X141395D01*
Y160480D01*
X140083D01*
X151890D02*
X147955D01*
X146643Y159168D01*
Y156544D01*
X147955Y155232D01*
X151890D01*
X66241Y128482D02*
X65492Y128107D01*
X64742Y127357D01*
X64367Y126608D01*
X63992Y125483D01*
Y123609D01*
X64367Y122484D01*
X64742Y121734D01*
X65492Y120985D01*
X66241Y120610D01*
X67741D01*
X68491Y120985D01*
X69240Y121734D01*
X69615Y122484D01*
X69990Y123609D01*
Y125483D01*
X69615Y126608D01*
X69240Y127357D01*
X68491Y128107D01*
X67741Y128482D01*
X66241D01*
X76326Y124733D02*
X75576Y125483D01*
X74826Y125858D01*
X73701D01*
X72952Y125483D01*
X72202Y124733D01*
X71827Y123609D01*
Y122859D01*
X72202Y121734D01*
X72952Y120985D01*
X73701Y120610D01*
X74826D01*
X75576Y120985D01*
X76326Y121734D01*
X79137Y128482D02*
Y122109D01*
X79512Y120985D01*
X80262Y120610D01*
X81011D01*
X78012Y125858D02*
X80637D01*
X84010D02*
X83261Y125483D01*
X82511Y124733D01*
X82136Y123609D01*
Y122859D01*
X82511Y121734D01*
X83261Y120985D01*
X84010Y120610D01*
X85135D01*
X85885Y120985D01*
X86634Y121734D01*
X87009Y122859D01*
Y123609D01*
X86634Y124733D01*
X85885Y125483D01*
X85135Y125858D01*
X84010D01*
X88734Y128482D02*
Y120610D01*
Y124733D02*
X89483Y125483D01*
X90233Y125858D01*
X91358D01*
X92108Y125483D01*
X92857Y124733D01*
X93232Y123609D01*
Y122859D01*
X92857Y121734D01*
X92108Y120985D01*
X91358Y120610D01*
X90233D01*
X89483Y120985D01*
X88734Y121734D01*
X94919Y123609D02*
X99418D01*
Y124358D01*
X99043Y125108D01*
X98668Y125483D01*
X97918Y125858D01*
X96794D01*
X96044Y125483D01*
X95294Y124733D01*
X94919Y123609D01*
Y122859D01*
X95294Y121734D01*
X96044Y120985D01*
X96794Y120610D01*
X97918D01*
X98668Y120985D01*
X99418Y121734D01*
X101104Y125858D02*
Y120610D01*
Y123609D02*
X101479Y124733D01*
X102229Y125483D01*
X102979Y125858D01*
X104104D01*
X105566Y120985D02*
X105191Y120610D01*
X104816Y120985D01*
X105191Y121360D01*
X105566Y120985D01*
Y120235D01*
X105191Y119485D01*
X104816Y119110D01*
X113850Y126608D02*
Y126983D01*
X114225Y127732D01*
X114600Y128107D01*
X115350Y128482D01*
X116849D01*
X117599Y128107D01*
X117974Y127732D01*
X118349Y126983D01*
Y126233D01*
X117974Y125483D01*
X117224Y124358D01*
X113475Y120610D01*
X118724D01*
X122735Y128482D02*
X121610Y128107D01*
X120860Y126983D01*
X120485Y125108D01*
Y123984D01*
X120860Y122109D01*
X121610Y120985D01*
X122735Y120610D01*
X123484D01*
X124609Y120985D01*
X125359Y122109D01*
X125734Y123984D01*
Y125108D01*
X125359Y126983D01*
X124609Y128107D01*
X123484Y128482D01*
X122735D01*
X127871Y126608D02*
Y126983D01*
X128245Y127732D01*
X128620Y128107D01*
X129370Y128482D01*
X130869D01*
X131619Y128107D01*
X131994Y127732D01*
X132369Y126983D01*
Y126233D01*
X131994Y125483D01*
X131244Y124358D01*
X127496Y120610D01*
X132744D01*
X136755Y128482D02*
X135630Y128107D01*
X134881Y126983D01*
X134506Y125108D01*
Y123984D01*
X134881Y122109D01*
X135630Y120985D01*
X136755Y120610D01*
X137505D01*
X138629Y120985D01*
X139379Y122109D01*
X139754Y123984D01*
Y125108D01*
X139379Y126983D01*
X138629Y128107D01*
X137505Y128482D01*
X136755D01*
X141891Y121360D02*
X141516Y120985D01*
X141891Y120610D01*
X142266Y120985D01*
X141891Y121360D01*
X63992Y138794D02*
Y130921D01*
Y138794D02*
X67366D01*
X68491Y138419D01*
X68866Y138044D01*
X69240Y137294D01*
Y136544D01*
X68866Y135795D01*
X68491Y135420D01*
X67366Y135045D01*
X63992D01*
X66616D02*
X69240Y130921D01*
X75876Y138794D02*
X71002D01*
Y130921D01*
X75876D01*
X71002Y135045D02*
X74001D01*
X77188Y138794D02*
X80187Y130921D01*
X83186Y138794D02*
X80187Y130921D01*
X86447Y138794D02*
X85322Y138419D01*
X84573Y137294D01*
X84198Y135420D01*
Y134295D01*
X84573Y132421D01*
X85322Y131296D01*
X86447Y130921D01*
X87197D01*
X88321Y131296D01*
X89071Y132421D01*
X89446Y134295D01*
Y135420D01*
X89071Y137294D01*
X88321Y138419D01*
X87197Y138794D01*
X86447D01*
X91208Y137294D02*
X91958Y137669D01*
X93082Y138794D01*
Y130921D01*
X68866Y151354D02*
X63992D01*
Y143482D01*
X68866D01*
X63992Y147606D02*
X66991D01*
X75801Y149480D02*
X75426Y150230D01*
X74676Y150979D01*
X73926Y151354D01*
X72427D01*
X71677Y150979D01*
X70927Y150230D01*
X70552Y149480D01*
X70178Y148355D01*
Y146481D01*
X70552Y145356D01*
X70927Y144607D01*
X71677Y143857D01*
X72427Y143482D01*
X73926D01*
X74676Y143857D01*
X75426Y144607D01*
X75801Y145356D01*
X83635Y149480D02*
X83261Y150230D01*
X82511Y150979D01*
X81761Y151354D01*
X80262D01*
X79512Y150979D01*
X78762Y150230D01*
X78387Y149480D01*
X78012Y148355D01*
Y146481D01*
X78387Y145356D01*
X78762Y144607D01*
X79512Y143857D01*
X80262Y143482D01*
X81761D01*
X82511Y143857D01*
X83261Y144607D01*
X83635Y145356D01*
Y146481D01*
X81761D02*
X83635D01*
X85435Y146856D02*
X92183D01*
X94507Y151354D02*
Y143482D01*
Y151354D02*
X97131D01*
X98255Y150979D01*
X99005Y150230D01*
X99380Y149480D01*
X99755Y148355D01*
Y146481D01*
X99380Y145356D01*
X99005Y144607D01*
X98255Y143857D01*
X97131Y143482D01*
X94507D01*
X107515D02*
X104516Y151354D01*
X101517Y143482D01*
X102642Y146106D02*
X106390D01*
X111601Y151354D02*
X110851Y150979D01*
X110101Y150230D01*
X109727Y149480D01*
X109352Y148355D01*
Y146481D01*
X109727Y145356D01*
X110101Y144607D01*
X110851Y143857D01*
X111601Y143482D01*
X113101D01*
X113850Y143857D01*
X114600Y144607D01*
X114975Y145356D01*
X115350Y146481D01*
Y148355D01*
X114975Y149480D01*
X114600Y150230D01*
X113850Y150979D01*
X113101Y151354D01*
X111601D01*
X112726Y144982D02*
X114975Y142732D01*
X244291Y12205D02*
X241930D01*
X241339Y11614D01*
Y10434D01*
X241930Y9843D01*
X244291D01*
X244881Y10434D01*
Y11614D01*
X243701Y11024D02*
X244881Y12205D01*
Y11614D02*
X244291Y12205D01*
X244881Y15747D02*
Y13386D01*
X242520Y15747D01*
X241930D01*
X241339Y15157D01*
Y13976D01*
X241930Y13386D01*
X131497Y302362D02*
X130906Y302952D01*
X129726D01*
X129135Y302362D01*
Y300000D01*
X129726Y299410D01*
X130906D01*
X131497Y300000D01*
X135039Y302952D02*
X132677D01*
Y301181D01*
X133858Y301771D01*
X134449D01*
X135039Y301181D01*
Y300000D01*
X134449Y299410D01*
X133268D01*
X132677Y300000D01*
X138581Y302952D02*
X136220D01*
Y301181D01*
X137400Y301771D01*
X137991D01*
X138581Y301181D01*
Y300000D01*
X137991Y299410D01*
X136810D01*
X136220Y300000D01*
X309181Y59361D02*
X309771Y59952D01*
Y61133D01*
X309181Y61723D01*
X306819D01*
X306229Y61133D01*
Y59952D01*
X306819Y59361D01*
X309771Y55819D02*
Y58181D01*
X308000D01*
X308590Y57000D01*
Y56410D01*
X308000Y55819D01*
X306819D01*
X306229Y56410D01*
Y57590D01*
X306819Y58181D01*
X306229Y52868D02*
X309771D01*
X308000Y54639D01*
Y52277D01*
X173139Y176771D02*
Y176181D01*
X174319Y175000D01*
X175500Y176181D01*
Y176771D01*
X174319Y175000D02*
Y173229D01*
X176681D02*
X177861D01*
X177271D01*
Y176771D01*
X176681Y176181D01*
X291048Y37271D02*
X293410Y33729D01*
Y37271D02*
X291048Y33729D01*
X294590Y37271D02*
X296952D01*
Y36681D01*
X294590Y34319D01*
Y33729D01*
X357284Y109212D02*
X359646Y105670D01*
Y109212D02*
X357284Y105670D01*
X363188Y109212D02*
X362007Y108622D01*
X360827Y107441D01*
Y106260D01*
X361417Y105670D01*
X362598D01*
X363188Y106260D01*
Y106851D01*
X362598Y107441D01*
X360827D01*
X358007Y247808D02*
X360368Y244266D01*
Y247808D02*
X358007Y244266D01*
X363911Y247808D02*
X361549D01*
Y246037D01*
X362730Y246628D01*
X363320D01*
X363911Y246037D01*
Y244857D01*
X363320Y244266D01*
X362140D01*
X361549Y244857D01*
X4528Y117127D02*
X8070Y119488D01*
X4528D02*
X8070Y117127D01*
Y122440D02*
X4528D01*
X6299Y120669D01*
Y123031D01*
X328548Y164271D02*
X330910Y160729D01*
Y164271D02*
X328548Y160729D01*
X332090Y163681D02*
X332681Y164271D01*
X333861D01*
X334452Y163681D01*
Y163090D01*
X333861Y162500D01*
X333271D01*
X333861D01*
X334452Y161910D01*
Y161319D01*
X333861Y160729D01*
X332681D01*
X332090Y161319D01*
X5548Y176271D02*
X7910Y172729D01*
Y176271D02*
X5548Y172729D01*
X11452D02*
X9090D01*
X11452Y175090D01*
Y175681D01*
X10861Y176271D01*
X9681D01*
X9090Y175681D01*
X28150Y301531D02*
X30512Y297989D01*
Y301531D02*
X28150Y297989D01*
X31692D02*
X32873D01*
X32283D01*
Y301531D01*
X31692Y300941D01*
X301548Y232271D02*
Y229319D01*
X302139Y228729D01*
X303319D01*
X303910Y229319D01*
Y232271D01*
X305090D02*
X307452D01*
Y231681D01*
X305090Y229319D01*
Y228729D01*
X232048Y76771D02*
Y73819D01*
X232639Y73229D01*
X233819D01*
X234410Y73819D01*
Y76771D01*
X237952D02*
X236771Y76181D01*
X235590Y75000D01*
Y73819D01*
X236181Y73229D01*
X237361D01*
X237952Y73819D01*
Y74410D01*
X237361Y75000D01*
X235590D01*
X120143Y62795D02*
Y59843D01*
X120733Y59253D01*
X121914D01*
X122504Y59843D01*
Y62795D01*
X126046D02*
X123685D01*
Y61024D01*
X124866Y61614D01*
X125456D01*
X126046Y61024D01*
Y59843D01*
X125456Y59253D01*
X124275D01*
X123685Y59843D01*
X278446Y151574D02*
Y148622D01*
X279036Y148032D01*
X280217D01*
X280807Y148622D01*
Y151574D01*
X283759Y148032D02*
Y151574D01*
X281988Y149803D01*
X284349D01*
X257875Y186810D02*
Y183859D01*
X258465Y183268D01*
X259646D01*
X260236Y183859D01*
Y186810D01*
X261417Y186220D02*
X262007Y186810D01*
X263188D01*
X263779Y186220D01*
Y185630D01*
X263188Y185039D01*
X262598D01*
X263188D01*
X263779Y184449D01*
Y183859D01*
X263188Y183268D01*
X262007D01*
X261417Y183859D01*
X275048Y275271D02*
Y272319D01*
X275639Y271729D01*
X276819D01*
X277410Y272319D01*
Y275271D01*
X280952Y271729D02*
X278590D01*
X280952Y274090D01*
Y274681D01*
X280361Y275271D01*
X279181D01*
X278590Y274681D01*
X218139Y319271D02*
Y316319D01*
X218729Y315729D01*
X219910D01*
X220500Y316319D01*
Y319271D01*
X221681Y315729D02*
X222861D01*
X222271D01*
Y319271D01*
X221681Y318681D01*
X305392Y159771D02*
X307753D01*
X306572D01*
Y156229D01*
X308934D02*
Y159771D01*
X310705D01*
X311295Y159181D01*
Y158000D01*
X310705Y157410D01*
X308934D01*
X312476Y156229D02*
X313657D01*
X313066D01*
Y159771D01*
X312476Y159181D01*
X315428Y156229D02*
X316608D01*
X316018D01*
Y159771D01*
X315428Y159181D01*
X175801Y25271D02*
X178163D01*
X176982D01*
Y21729D01*
X179343D02*
Y25271D01*
X181114D01*
X181705Y24681D01*
Y23500D01*
X181114Y22910D01*
X179343D01*
X182886Y21729D02*
X184066D01*
X183476D01*
Y25271D01*
X182886Y24681D01*
X185837D02*
X186428Y25271D01*
X187608D01*
X188199Y24681D01*
Y22319D01*
X187608Y21729D01*
X186428D01*
X185837Y22319D01*
Y24681D01*
X58777Y39771D02*
X61139D01*
X59958D01*
Y36229D01*
X62319D02*
Y39771D01*
X64090D01*
X64681Y39181D01*
Y38000D01*
X64090Y37410D01*
X62319D01*
X65861Y36819D02*
X66452Y36229D01*
X67633D01*
X68223Y36819D01*
Y39181D01*
X67633Y39771D01*
X66452D01*
X65861Y39181D01*
Y38590D01*
X66452Y38000D01*
X68223D01*
X148427Y51968D02*
X150788D01*
X149607D01*
Y48426D01*
X151969D02*
Y51968D01*
X153740D01*
X154330Y51378D01*
Y50197D01*
X153740Y49606D01*
X151969D01*
X155511Y51378D02*
X156101Y51968D01*
X157282D01*
X157872Y51378D01*
Y50787D01*
X157282Y50197D01*
X157872Y49606D01*
Y49016D01*
X157282Y48426D01*
X156101D01*
X155511Y49016D01*
Y49606D01*
X156101Y50197D01*
X155511Y50787D01*
Y51378D01*
X156101Y50197D02*
X157282D01*
X258096Y281976D02*
X260457D01*
X259277D01*
Y278434D01*
X261638D02*
Y281976D01*
X263409D01*
X264000Y281385D01*
Y280205D01*
X263409Y279614D01*
X261638D01*
X265180Y281976D02*
X267542D01*
Y281385D01*
X265180Y279024D01*
Y278434D01*
X203438Y291129D02*
X205800D01*
X204619D01*
Y287587D01*
X206981D02*
Y291129D01*
X208752D01*
X209342Y290539D01*
Y289358D01*
X208752Y288768D01*
X206981D01*
X212884Y291129D02*
X211704Y290539D01*
X210523Y289358D01*
Y288178D01*
X211113Y287587D01*
X212294D01*
X212884Y288178D01*
Y288768D01*
X212294Y289358D01*
X210523D01*
X155120Y288767D02*
X157481D01*
X156300D01*
Y285225D01*
X158662D02*
Y288767D01*
X160433D01*
X161023Y288177D01*
Y286996D01*
X160433Y286406D01*
X158662D01*
X164565Y288767D02*
X162204D01*
Y286996D01*
X163385Y287586D01*
X163975D01*
X164565Y286996D01*
Y285815D01*
X163975Y285225D01*
X162794D01*
X162204Y285815D01*
X129271Y243223D02*
Y240861D01*
Y242042D01*
X125729D01*
Y239681D02*
X129271D01*
Y237910D01*
X128681Y237319D01*
X127500D01*
X126910Y237910D01*
Y239681D01*
X125729Y234367D02*
X129271D01*
X127500Y236139D01*
Y233777D01*
X121771Y243223D02*
Y240861D01*
Y242042D01*
X118229D01*
Y239681D02*
X121771D01*
Y237910D01*
X121181Y237319D01*
X120000D01*
X119410Y237910D01*
Y239681D01*
X121181Y236139D02*
X121771Y235548D01*
Y234367D01*
X121181Y233777D01*
X120590D01*
X120000Y234367D01*
Y234958D01*
Y234367D01*
X119410Y233777D01*
X118819D01*
X118229Y234367D01*
Y235548D01*
X118819Y236139D01*
X118702Y334054D02*
X121064D01*
X119883D01*
Y330512D01*
X122244D02*
Y334054D01*
X124015D01*
X124606Y333464D01*
Y332283D01*
X124015Y331693D01*
X122244D01*
X125786Y330512D02*
X126967D01*
X126377D01*
Y334054D01*
X125786Y333464D01*
X234500Y212181D02*
X233910Y212771D01*
X232729D01*
X232139Y212181D01*
Y211590D01*
X232729Y211000D01*
X233910D01*
X234500Y210410D01*
Y209819D01*
X233910Y209229D01*
X232729D01*
X232139Y209819D01*
X235681Y209229D02*
X236861D01*
X236271D01*
Y212771D01*
X235681Y212181D01*
X326379Y87205D02*
Y90747D01*
X328151D01*
X328741Y90157D01*
Y88976D01*
X328151Y88386D01*
X326379D01*
X327560D02*
X328741Y87205D01*
X331693D02*
Y90747D01*
X329922Y88976D01*
X332283D01*
X335235Y87205D02*
Y90747D01*
X333464Y88976D01*
X335825D01*
X325592Y58859D02*
Y62401D01*
X327363D01*
X327954Y61811D01*
Y60630D01*
X327363Y60040D01*
X325592D01*
X326773D02*
X327954Y58859D01*
X330905D02*
Y62401D01*
X329134Y60630D01*
X331496D01*
X335038Y58859D02*
X332676D01*
X335038Y61220D01*
Y61811D01*
X334448Y62401D01*
X333267D01*
X332676Y61811D01*
X224155Y38823D02*
Y42366D01*
X225926D01*
X226516Y41775D01*
Y40595D01*
X225926Y40004D01*
X224155D01*
X225336D02*
X226516Y38823D01*
X229468D02*
Y42366D01*
X227697Y40595D01*
X230059D01*
X231239Y38823D02*
X232420D01*
X231830D01*
Y42366D01*
X231239Y41775D01*
X205285Y40673D02*
X201743D01*
Y42444D01*
X202333Y43034D01*
X203514D01*
X204104Y42444D01*
Y40673D01*
Y41853D02*
X205285Y43034D01*
Y45986D02*
X201743D01*
X203514Y44215D01*
Y46576D01*
X202333Y47757D02*
X201743Y48347D01*
Y49528D01*
X202333Y50118D01*
X204695D01*
X205285Y49528D01*
Y48347D01*
X204695Y47757D01*
X202333D01*
X95777Y61229D02*
Y64771D01*
X97548D01*
X98139Y64181D01*
Y63000D01*
X97548Y62410D01*
X95777D01*
X96958D02*
X98139Y61229D01*
X99319Y64181D02*
X99910Y64771D01*
X101090D01*
X101681Y64181D01*
Y63590D01*
X101090Y63000D01*
X100500D01*
X101090D01*
X101681Y62410D01*
Y61819D01*
X101090Y61229D01*
X99910D01*
X99319Y61819D01*
X102861D02*
X103452Y61229D01*
X104632D01*
X105223Y61819D01*
Y64181D01*
X104632Y64771D01*
X103452D01*
X102861Y64181D01*
Y63590D01*
X103452Y63000D01*
X105223D01*
X95729Y53223D02*
X99271D01*
Y51452D01*
X98681Y50861D01*
X97500D01*
X96910Y51452D01*
Y53223D01*
Y52042D02*
X95729Y50861D01*
X98681Y49681D02*
X99271Y49090D01*
Y47910D01*
X98681Y47319D01*
X98090D01*
X97500Y47910D01*
Y48500D01*
Y47910D01*
X96910Y47319D01*
X96319D01*
X95729Y47910D01*
Y49090D01*
X96319Y49681D01*
X98681Y46139D02*
X99271Y45548D01*
Y44368D01*
X98681Y43777D01*
X98090D01*
X97500Y44368D01*
X96910Y43777D01*
X96319D01*
X95729Y44368D01*
Y45548D01*
X96319Y46139D01*
X96910D01*
X97500Y45548D01*
X98090Y46139D01*
X98681D01*
X97500Y45548D02*
Y44368D01*
X122897Y101576D02*
X119355D01*
Y103347D01*
X119945Y103938D01*
X121126D01*
X121716Y103347D01*
Y101576D01*
Y102757D02*
X122897Y103938D01*
X119945Y105119D02*
X119355Y105709D01*
Y106890D01*
X119945Y107480D01*
X120536D01*
X121126Y106890D01*
Y106299D01*
Y106890D01*
X121716Y107480D01*
X122307D01*
X122897Y106890D01*
Y105709D01*
X122307Y105119D01*
X119355Y108661D02*
Y111022D01*
X119945D01*
X122307Y108661D01*
X122897D01*
X114271Y101427D02*
X110729D01*
Y103198D01*
X111319Y103788D01*
X112500D01*
X113090Y103198D01*
Y101427D01*
Y102608D02*
X114271Y103788D01*
X111319Y104969D02*
X110729Y105559D01*
Y106740D01*
X111319Y107330D01*
X111910D01*
X112500Y106740D01*
Y106150D01*
Y106740D01*
X113090Y107330D01*
X113681D01*
X114271Y106740D01*
Y105559D01*
X113681Y104969D01*
X110729Y110872D02*
X111319Y109692D01*
X112500Y108511D01*
X113681D01*
X114271Y109101D01*
Y110282D01*
X113681Y110872D01*
X113090D01*
X112500Y110282D01*
Y108511D01*
X238277Y38729D02*
Y42271D01*
X240048D01*
X240639Y41681D01*
Y40500D01*
X240048Y39910D01*
X238277D01*
X239458D02*
X240639Y38729D01*
X241819Y41681D02*
X242410Y42271D01*
X243590D01*
X244181Y41681D01*
Y41090D01*
X243590Y40500D01*
X243000D01*
X243590D01*
X244181Y39910D01*
Y39319D01*
X243590Y38729D01*
X242410D01*
X241819Y39319D01*
X247723Y42271D02*
X245361D01*
Y40500D01*
X246542Y41090D01*
X247132D01*
X247723Y40500D01*
Y39319D01*
X247132Y38729D01*
X245952D01*
X245361Y39319D01*
X252277Y38729D02*
Y42271D01*
X254048D01*
X254639Y41681D01*
Y40500D01*
X254048Y39910D01*
X252277D01*
X253458D02*
X254639Y38729D01*
X255819Y41681D02*
X256410Y42271D01*
X257590D01*
X258181Y41681D01*
Y41090D01*
X257590Y40500D01*
X257000D01*
X257590D01*
X258181Y39910D01*
Y39319D01*
X257590Y38729D01*
X256410D01*
X255819Y39319D01*
X261133Y38729D02*
Y42271D01*
X259361Y40500D01*
X261723D01*
X116777Y45229D02*
Y48771D01*
X118548D01*
X119139Y48181D01*
Y47000D01*
X118548Y46410D01*
X116777D01*
X117958D02*
X119139Y45229D01*
X120319Y48181D02*
X120910Y48771D01*
X122090D01*
X122681Y48181D01*
Y47590D01*
X122090Y47000D01*
X121500D01*
X122090D01*
X122681Y46410D01*
Y45819D01*
X122090Y45229D01*
X120910D01*
X120319Y45819D01*
X123861Y48181D02*
X124452Y48771D01*
X125633D01*
X126223Y48181D01*
Y47590D01*
X125633Y47000D01*
X125042D01*
X125633D01*
X126223Y46410D01*
Y45819D01*
X125633Y45229D01*
X124452D01*
X123861Y45819D01*
X215158Y194093D02*
X218700D01*
Y192322D01*
X218110Y191732D01*
X216929D01*
X216339Y192322D01*
Y194093D01*
Y192912D02*
X215158Y191732D01*
X218110Y190551D02*
X218700Y189960D01*
Y188780D01*
X218110Y188189D01*
X217519D01*
X216929Y188780D01*
Y189370D01*
Y188780D01*
X216339Y188189D01*
X215748D01*
X215158Y188780D01*
Y189960D01*
X215748Y190551D01*
X215158Y184647D02*
Y187009D01*
X217519Y184647D01*
X218110D01*
X218700Y185238D01*
Y186418D01*
X218110Y187009D01*
X241501Y191983D02*
X245043D01*
Y190212D01*
X244452Y189621D01*
X243272D01*
X242681Y190212D01*
Y191983D01*
Y190802D02*
X241501Y189621D01*
X244452Y188441D02*
X245043Y187850D01*
Y186670D01*
X244452Y186079D01*
X243862D01*
X243272Y186670D01*
Y187260D01*
Y186670D01*
X242681Y186079D01*
X242091D01*
X241501Y186670D01*
Y187850D01*
X242091Y188441D01*
X241501Y184899D02*
Y183718D01*
Y184308D01*
X245043D01*
X244452Y184899D01*
X223820Y195670D02*
Y199212D01*
X225591D01*
X226182Y198622D01*
Y197441D01*
X225591Y196851D01*
X223820D01*
X225001D02*
X226182Y195670D01*
X227363Y198622D02*
X227953Y199212D01*
X229134D01*
X229724Y198622D01*
Y198031D01*
X229134Y197441D01*
X228543D01*
X229134D01*
X229724Y196851D01*
Y196260D01*
X229134Y195670D01*
X227953D01*
X227363Y196260D01*
X230905Y198622D02*
X231495Y199212D01*
X232676D01*
X233266Y198622D01*
Y196260D01*
X232676Y195670D01*
X231495D01*
X230905Y196260D01*
Y198622D01*
X202720Y147498D02*
X199178D01*
Y149269D01*
X199768Y149859D01*
X200949D01*
X201539Y149269D01*
Y147498D01*
Y148678D02*
X202720Y149859D01*
Y153401D02*
Y151040D01*
X200359Y153401D01*
X199768D01*
X199178Y152811D01*
Y151630D01*
X199768Y151040D01*
X202130Y154582D02*
X202720Y155172D01*
Y156353D01*
X202130Y156943D01*
X199768D01*
X199178Y156353D01*
Y155172D01*
X199768Y154582D01*
X200359D01*
X200949Y155172D01*
Y156943D01*
X312171Y140607D02*
Y144149D01*
X313942D01*
X314532Y143559D01*
Y142378D01*
X313942Y141788D01*
X312171D01*
X313351D02*
X314532Y140607D01*
X318074D02*
X315713D01*
X318074Y142968D01*
Y143559D01*
X317484Y144149D01*
X316303D01*
X315713Y143559D01*
X319255D02*
X319846Y144149D01*
X321026D01*
X321617Y143559D01*
Y142968D01*
X321026Y142378D01*
X321617Y141788D01*
Y141197D01*
X321026Y140607D01*
X319846D01*
X319255Y141197D01*
Y141788D01*
X319846Y142378D01*
X319255Y142968D01*
Y143559D01*
X319846Y142378D02*
X321026D01*
X312171Y129780D02*
Y133322D01*
X313942D01*
X314532Y132732D01*
Y131551D01*
X313942Y130961D01*
X312171D01*
X313351D02*
X314532Y129780D01*
X318074D02*
X315713D01*
X318074Y132142D01*
Y132732D01*
X317484Y133322D01*
X316303D01*
X315713Y132732D01*
X319255Y133322D02*
X321617D01*
Y132732D01*
X319255Y130370D01*
Y129780D01*
X278938Y254329D02*
X282480D01*
Y252558D01*
X281889Y251968D01*
X280709D01*
X280118Y252558D01*
Y254329D01*
Y253149D02*
X278938Y251968D01*
Y248426D02*
Y250787D01*
X281299Y248426D01*
X281889D01*
X282480Y249016D01*
Y250197D01*
X281889Y250787D01*
X282480Y244883D02*
X281889Y246064D01*
X280709Y247245D01*
X279528D01*
X278938Y246655D01*
Y245474D01*
X279528Y244883D01*
X280118D01*
X280709Y245474D01*
Y247245D01*
X266229Y238223D02*
X269771D01*
Y236452D01*
X269181Y235861D01*
X268000D01*
X267410Y236452D01*
Y238223D01*
Y237042D02*
X266229Y235861D01*
Y232319D02*
Y234681D01*
X268590Y232319D01*
X269181D01*
X269771Y232910D01*
Y234090D01*
X269181Y234681D01*
X269771Y228777D02*
Y231139D01*
X268000D01*
X268590Y229958D01*
Y229367D01*
X268000Y228777D01*
X266819D01*
X266229Y229367D01*
Y230548D01*
X266819Y231139D01*
X259229Y242223D02*
X262771D01*
Y240452D01*
X262181Y239861D01*
X261000D01*
X260410Y240452D01*
Y242223D01*
Y241042D02*
X259229Y239861D01*
Y236319D02*
Y238681D01*
X261590Y236319D01*
X262181D01*
X262771Y236910D01*
Y238090D01*
X262181Y238681D01*
X259229Y233367D02*
X262771D01*
X261000Y235139D01*
Y232777D01*
X240271Y271277D02*
X236729D01*
Y273048D01*
X237319Y273639D01*
X238500D01*
X239090Y273048D01*
Y271277D01*
Y272458D02*
X240271Y273639D01*
Y277181D02*
Y274819D01*
X237910Y277181D01*
X237319D01*
X236729Y276590D01*
Y275410D01*
X237319Y274819D01*
Y278361D02*
X236729Y278952D01*
Y280133D01*
X237319Y280723D01*
X237910D01*
X238500Y280133D01*
Y279542D01*
Y280133D01*
X239090Y280723D01*
X239681D01*
X240271Y280133D01*
Y278952D01*
X239681Y278361D01*
X260637Y311253D02*
X257095D01*
Y313025D01*
X257685Y313615D01*
X258866D01*
X259456Y313025D01*
Y311253D01*
Y312434D02*
X260637Y313615D01*
Y317157D02*
Y314796D01*
X258276Y317157D01*
X257685D01*
X257095Y316567D01*
Y315386D01*
X257685Y314796D01*
X260637Y320699D02*
Y318338D01*
X258276Y320699D01*
X257685D01*
X257095Y320109D01*
Y318928D01*
X257685Y318338D01*
X237729Y252133D02*
X241271D01*
Y250361D01*
X240681Y249771D01*
X239500D01*
X238910Y250361D01*
Y252133D01*
Y250952D02*
X237729Y249771D01*
Y246229D02*
Y248590D01*
X240090Y246229D01*
X240681D01*
X241271Y246819D01*
Y248000D01*
X240681Y248590D01*
X237729Y245048D02*
Y243867D01*
Y244458D01*
X241271D01*
X240681Y245048D01*
X209229Y252223D02*
X212771D01*
Y250452D01*
X212181Y249861D01*
X211000D01*
X210410Y250452D01*
Y252223D01*
Y251042D02*
X209229Y249861D01*
Y246319D02*
Y248681D01*
X211590Y246319D01*
X212181D01*
X212771Y246910D01*
Y248090D01*
X212181Y248681D01*
Y245139D02*
X212771Y244548D01*
Y243368D01*
X212181Y242777D01*
X209819D01*
X209229Y243368D01*
Y244548D01*
X209819Y245139D01*
X212181D01*
X198729Y257428D02*
X202271D01*
Y255657D01*
X201681Y255066D01*
X200500D01*
X199910Y255657D01*
Y257428D01*
Y256247D02*
X198729Y255066D01*
Y253886D02*
Y252705D01*
Y253295D01*
X202271D01*
X201681Y253886D01*
X199319Y250934D02*
X198729Y250343D01*
Y249163D01*
X199319Y248572D01*
X201681D01*
X202271Y249163D01*
Y250343D01*
X201681Y250934D01*
X201090D01*
X200500Y250343D01*
Y248572D01*
X187848Y240654D02*
Y244196D01*
X189619D01*
X190209Y243606D01*
Y242425D01*
X189619Y241835D01*
X187848D01*
X189029D02*
X190209Y240654D01*
X191390D02*
X192571D01*
X191980D01*
Y244196D01*
X191390Y243606D01*
X194342D02*
X194932Y244196D01*
X196113D01*
X196703Y243606D01*
Y243016D01*
X196113Y242425D01*
X196703Y241835D01*
Y241245D01*
X196113Y240654D01*
X194932D01*
X194342Y241245D01*
Y241835D01*
X194932Y242425D01*
X194342Y243016D01*
Y243606D01*
X194932Y242425D02*
X196113D01*
X164729Y225778D02*
X168271D01*
Y224007D01*
X167681Y223417D01*
X166500D01*
X165910Y224007D01*
Y225778D01*
Y224597D02*
X164729Y223417D01*
Y222236D02*
Y221055D01*
Y221646D01*
X168271D01*
X167681Y222236D01*
X168271Y219284D02*
Y216923D01*
X167681D01*
X165319Y219284D01*
X164729D01*
X157729Y225928D02*
X161271D01*
Y224157D01*
X160681Y223566D01*
X159500D01*
X158910Y224157D01*
Y225928D01*
Y224747D02*
X157729Y223566D01*
Y222386D02*
Y221205D01*
Y221795D01*
X161271D01*
X160681Y222386D01*
X161271Y217072D02*
X160681Y218253D01*
X159500Y219434D01*
X158319D01*
X157729Y218843D01*
Y217663D01*
X158319Y217072D01*
X158910D01*
X159500Y217663D01*
Y219434D01*
X138572Y237729D02*
Y241271D01*
X140343D01*
X140934Y240681D01*
Y239500D01*
X140343Y238910D01*
X138572D01*
X139753D02*
X140934Y237729D01*
X142114D02*
X143295D01*
X142705D01*
Y241271D01*
X142114Y240681D01*
X147428Y241271D02*
X145066D01*
Y239500D01*
X146247Y240090D01*
X146837D01*
X147428Y239500D01*
Y238319D01*
X146837Y237729D01*
X145657D01*
X145066Y238319D01*
X132072Y249229D02*
Y252771D01*
X133843D01*
X134434Y252181D01*
Y251000D01*
X133843Y250410D01*
X132072D01*
X133253D02*
X134434Y249229D01*
X135615D02*
X136795D01*
X136205D01*
Y252771D01*
X135615Y252181D01*
X140337Y249229D02*
Y252771D01*
X138566Y251000D01*
X140928D01*
X151771Y277572D02*
X148229D01*
Y279343D01*
X148819Y279934D01*
X150000D01*
X150590Y279343D01*
Y277572D01*
Y278753D02*
X151771Y279934D01*
Y281115D02*
Y282295D01*
Y281705D01*
X148229D01*
X148819Y281115D01*
Y284066D02*
X148229Y284657D01*
Y285837D01*
X148819Y286428D01*
X149410D01*
X150000Y285837D01*
Y285247D01*
Y285837D01*
X150590Y286428D01*
X151181D01*
X151771Y285837D01*
Y284657D01*
X151181Y284066D01*
X138572Y314729D02*
Y318271D01*
X140343D01*
X140934Y317681D01*
Y316500D01*
X140343Y315910D01*
X138572D01*
X139753D02*
X140934Y314729D01*
X142114D02*
X143295D01*
X142705D01*
Y318271D01*
X142114Y317681D01*
X147428Y314729D02*
X145066D01*
X147428Y317090D01*
Y317681D01*
X146837Y318271D01*
X145657D01*
X145066Y317681D01*
X151663Y314729D02*
Y318271D01*
X153434D01*
X154024Y317681D01*
Y316500D01*
X153434Y315910D01*
X151663D01*
X152843D02*
X154024Y314729D01*
X155205D02*
X156386D01*
X155795D01*
Y318271D01*
X155205Y317681D01*
X158157Y314729D02*
X159337D01*
X158747D01*
Y318271D01*
X158157Y317681D01*
X142271Y277572D02*
X138729D01*
Y279343D01*
X139319Y279934D01*
X140500D01*
X141090Y279343D01*
Y277572D01*
Y278753D02*
X142271Y279934D01*
Y281115D02*
Y282295D01*
Y281705D01*
X138729D01*
X139319Y281115D01*
Y284066D02*
X138729Y284657D01*
Y285837D01*
X139319Y286428D01*
X141681D01*
X142271Y285837D01*
Y284657D01*
X141681Y284066D01*
X139319D01*
X87401Y276044D02*
X83859D01*
Y277815D01*
X84449Y278406D01*
X85630D01*
X86220Y277815D01*
Y276044D01*
Y277225D02*
X87401Y278406D01*
X84449Y279586D02*
X83859Y280177D01*
Y281358D01*
X84449Y281948D01*
X85040D01*
X85630Y281358D01*
X86220Y281948D01*
X86811D01*
X87401Y281358D01*
Y280177D01*
X86811Y279586D01*
X86220D01*
X85630Y280177D01*
X85040Y279586D01*
X84449D01*
X85630Y280177D02*
Y281358D01*
X99017Y280119D02*
Y283661D01*
X100788D01*
X101378Y283070D01*
Y281890D01*
X100788Y281299D01*
X99017D01*
X100197D02*
X101378Y280119D01*
X102559Y283661D02*
X104920D01*
Y283070D01*
X102559Y280709D01*
Y280119D01*
X116134Y282700D02*
X119677D01*
Y280929D01*
X119086Y280338D01*
X117905D01*
X117315Y280929D01*
Y282700D01*
Y281519D02*
X116134Y280338D01*
X119677Y276796D02*
X119086Y277977D01*
X117905Y279158D01*
X116725D01*
X116134Y278567D01*
Y277387D01*
X116725Y276796D01*
X117315D01*
X117905Y277387D01*
Y279158D01*
X78543Y308466D02*
X75001D01*
Y310237D01*
X75591Y310827D01*
X76772D01*
X77362Y310237D01*
Y308466D01*
Y309646D02*
X78543Y310827D01*
X75001Y314369D02*
Y312008D01*
X76772D01*
X76181Y313188D01*
Y313779D01*
X76772Y314369D01*
X77952D01*
X78543Y313779D01*
Y312598D01*
X77952Y312008D01*
X42048Y249323D02*
Y252866D01*
X43819D01*
X44410Y252275D01*
Y251095D01*
X43819Y250504D01*
X42048D01*
X43229D02*
X44410Y249323D01*
X47361D02*
Y252866D01*
X45590Y251095D01*
X47952D01*
X42048Y271729D02*
Y275271D01*
X43819D01*
X44410Y274681D01*
Y273500D01*
X43819Y272910D01*
X42048D01*
X43229D02*
X44410Y271729D01*
X45590Y274681D02*
X46181Y275271D01*
X47361D01*
X47952Y274681D01*
Y274090D01*
X47361Y273500D01*
X46771D01*
X47361D01*
X47952Y272910D01*
Y272319D01*
X47361Y271729D01*
X46181D01*
X45590Y272319D01*
X108859Y317520D02*
Y321062D01*
X110630D01*
X111221Y320472D01*
Y319291D01*
X110630Y318701D01*
X108859D01*
X110040D02*
X111221Y317520D01*
X114763D02*
X112401D01*
X114763Y319882D01*
Y320472D01*
X114172Y321062D01*
X112992D01*
X112401Y320472D01*
X99213Y335630D02*
Y339173D01*
X100984D01*
X101575Y338582D01*
Y337402D01*
X100984Y336811D01*
X99213D01*
X100394D02*
X101575Y335630D01*
X102755D02*
X103936D01*
X103346D01*
Y339173D01*
X102755Y338582D01*
X346410Y214819D02*
Y217181D01*
X345819Y217771D01*
X344639D01*
X344048Y217181D01*
Y214819D01*
X344639Y214229D01*
X345819D01*
X345229Y215410D02*
X346410Y214229D01*
X345819D02*
X346410Y214819D01*
X347590Y217181D02*
X348181Y217771D01*
X349361D01*
X349952Y217181D01*
Y216590D01*
X349361Y216000D01*
X348771D01*
X349361D01*
X349952Y215410D01*
Y214819D01*
X349361Y214229D01*
X348181D01*
X347590Y214819D01*
X154000Y12319D02*
Y14681D01*
X153410Y15271D01*
X152229D01*
X151639Y14681D01*
Y12319D01*
X152229Y11729D01*
X153410D01*
X152819Y12910D02*
X154000Y11729D01*
X153410D02*
X154000Y12319D01*
X155181Y11729D02*
X156361D01*
X155771D01*
Y15271D01*
X155181Y14681D01*
X293771Y260952D02*
X290229D01*
Y258590D01*
X293771Y255048D02*
Y257410D01*
X292000D01*
X292590Y256229D01*
Y255639D01*
X292000Y255048D01*
X290819D01*
X290229Y255639D01*
Y256819D01*
X290819Y257410D01*
X255806Y249605D02*
X252264D01*
Y247244D01*
Y244292D02*
X255806D01*
X254035Y246063D01*
Y243702D01*
X187993Y88385D02*
Y84843D01*
X190355D01*
X191535Y87795D02*
X192126Y88385D01*
X193306D01*
X193897Y87795D01*
Y87204D01*
X193306Y86614D01*
X192716D01*
X193306D01*
X193897Y86024D01*
Y85434D01*
X193306Y84843D01*
X192126D01*
X191535Y85434D01*
X145010Y102222D02*
Y98680D01*
X147372D01*
X150914D02*
X148552D01*
X150914Y101041D01*
Y101631D01*
X150323Y102222D01*
X149143D01*
X148552Y101631D01*
X77639Y12771D02*
Y9229D01*
X80000D01*
X81181D02*
X82361D01*
X81771D01*
Y12771D01*
X81181Y12181D01*
X326477Y209251D02*
X324115D01*
Y207480D01*
X325296D01*
X324115D01*
Y205709D01*
X330019D02*
X327657D01*
X330019Y208071D01*
Y208661D01*
X329428Y209251D01*
X328248D01*
X327657Y208661D01*
X289370Y17519D02*
X287009D01*
Y15748D01*
X288189D01*
X287009D01*
Y13977D01*
X290551D02*
X291732D01*
X291141D01*
Y17519D01*
X290551Y16929D01*
X333536Y248214D02*
Y244672D01*
X335307D01*
X335898Y245262D01*
Y247623D01*
X335307Y248214D01*
X333536D01*
X337078Y245262D02*
X337669Y244672D01*
X338849D01*
X339440Y245262D01*
Y247623D01*
X338849Y248214D01*
X337669D01*
X337078Y247623D01*
Y247033D01*
X337669Y246443D01*
X339440D01*
X346655Y92322D02*
Y88780D01*
X348426D01*
X349016Y89371D01*
Y91732D01*
X348426Y92322D01*
X346655D01*
X350197Y91732D02*
X350787Y92322D01*
X351968D01*
X352558Y91732D01*
Y91141D01*
X351968Y90551D01*
X352558Y89961D01*
Y89371D01*
X351968Y88780D01*
X350787D01*
X350197Y89371D01*
Y89961D01*
X350787Y90551D01*
X350197Y91141D01*
Y91732D01*
X350787Y90551D02*
X351968D01*
X344292Y61614D02*
Y58071D01*
X346063D01*
X346654Y58662D01*
Y61023D01*
X346063Y61614D01*
X344292D01*
X350196D02*
X349015Y61023D01*
X347834Y59842D01*
Y58662D01*
X348425Y58071D01*
X349605D01*
X350196Y58662D01*
Y59252D01*
X349605Y59842D01*
X347834D01*
X222721Y96717D02*
Y93175D01*
X224492D01*
X225083Y93765D01*
Y96127D01*
X224492Y96717D01*
X222721D01*
X228625D02*
X226263D01*
Y94946D01*
X227444Y95536D01*
X228034D01*
X228625Y94946D01*
Y93765D01*
X228034Y93175D01*
X226854D01*
X226263Y93765D01*
X133729Y89048D02*
X137271D01*
Y90819D01*
X136681Y91410D01*
X134319D01*
X133729Y90819D01*
Y89048D01*
X137271Y94361D02*
X133729D01*
X135500Y92590D01*
Y94952D01*
X64481Y52548D02*
X68023D01*
Y54319D01*
X67433Y54910D01*
X65071D01*
X64481Y54319D01*
Y52548D01*
X65071Y56090D02*
X64481Y56681D01*
Y57862D01*
X65071Y58452D01*
X65662D01*
X66252Y57862D01*
Y57271D01*
Y57862D01*
X66842Y58452D01*
X67433D01*
X68023Y57862D01*
Y56681D01*
X67433Y56090D01*
X297995Y145330D02*
X294453D01*
Y143559D01*
X295044Y142968D01*
X297405D01*
X297995Y143559D01*
Y145330D01*
X294453Y139426D02*
Y141788D01*
X296815Y139426D01*
X297405D01*
X297995Y140016D01*
Y141197D01*
X297405Y141788D01*
X297602Y133913D02*
X294060D01*
Y132141D01*
X294650Y131551D01*
X297011D01*
X297602Y132141D01*
Y133913D01*
X294060Y130370D02*
Y129190D01*
Y129780D01*
X297602D01*
X297011Y130370D01*
X210039Y188780D02*
X210629Y188189D01*
X211810D01*
X212400Y188780D01*
Y191141D01*
X211810Y191732D01*
X210629D01*
X210039Y191141D01*
X206496Y188189D02*
X208858D01*
Y189961D01*
X207677Y189370D01*
X207087D01*
X206496Y189961D01*
Y191141D01*
X207087Y191732D01*
X208267D01*
X208858Y191141D01*
X205316Y188780D02*
X204725Y188189D01*
X203545D01*
X202954Y188780D01*
Y189370D01*
X203545Y189961D01*
X204135D01*
X203545D01*
X202954Y190551D01*
Y191141D01*
X203545Y191732D01*
X204725D01*
X205316Y191141D01*
X204922Y124922D02*
X204331Y124332D01*
Y123151D01*
X204922Y122561D01*
X207283D01*
X207873Y123151D01*
Y124332D01*
X207283Y124922D01*
X204331Y128464D02*
Y126103D01*
X206102D01*
X205512Y127284D01*
Y127874D01*
X206102Y128464D01*
X207283D01*
X207873Y127874D01*
Y126693D01*
X207283Y126103D01*
X207873Y132006D02*
Y129645D01*
X205512Y132006D01*
X204922D01*
X204331Y131416D01*
Y130235D01*
X204922Y129645D01*
X228562Y118504D02*
X229153Y117914D01*
X230333D01*
X230924Y118504D01*
Y120866D01*
X230333Y121456D01*
X229153D01*
X228562Y120866D01*
X225020Y117914D02*
X227382D01*
Y119685D01*
X226201Y119095D01*
X225611D01*
X225020Y119685D01*
Y120866D01*
X225611Y121456D01*
X226791D01*
X227382Y120866D01*
X223839Y121456D02*
X222659D01*
X223249D01*
Y117914D01*
X223839Y118504D01*
X280611Y171752D02*
X280021Y172342D01*
X278840D01*
X278250Y171752D01*
Y169390D01*
X278840Y168800D01*
X280021D01*
X280611Y169390D01*
X284153Y172342D02*
X281792D01*
Y170571D01*
X282972Y171161D01*
X283563D01*
X284153Y170571D01*
Y169390D01*
X283563Y168800D01*
X282382D01*
X281792Y169390D01*
X285334Y171752D02*
X285924Y172342D01*
X287105D01*
X287695Y171752D01*
Y169390D01*
X287105Y168800D01*
X285924D01*
X285334Y169390D01*
Y171752D01*
X295375Y206397D02*
X294784Y206988D01*
X293604D01*
X293013Y206397D01*
Y204036D01*
X293604Y203446D01*
X294784D01*
X295375Y204036D01*
X298327Y203446D02*
Y206988D01*
X296555Y205217D01*
X298917D01*
X300098Y204036D02*
X300688Y203446D01*
X301869D01*
X302459Y204036D01*
Y206397D01*
X301869Y206988D01*
X300688D01*
X300098Y206397D01*
Y205807D01*
X300688Y205217D01*
X302459D01*
X264567Y124113D02*
X265157Y124704D01*
Y125884D01*
X264567Y126475D01*
X262205D01*
X261615Y125884D01*
Y124704D01*
X262205Y124113D01*
X261615Y121162D02*
X265157D01*
X263386Y122933D01*
Y120571D01*
X264567Y119390D02*
X265157Y118800D01*
Y117619D01*
X264567Y117029D01*
X263976D01*
X263386Y117619D01*
X262795Y117029D01*
X262205D01*
X261615Y117619D01*
Y118800D01*
X262205Y119390D01*
X262795D01*
X263386Y118800D01*
X263976Y119390D01*
X264567D01*
X263386Y118800D02*
Y117619D01*
X205316Y179527D02*
X204725Y180117D01*
X203545D01*
X202954Y179527D01*
Y177166D01*
X203545Y176575D01*
X204725D01*
X205316Y177166D01*
X208267Y176575D02*
Y180117D01*
X206497Y178347D01*
X208858D01*
X210039Y180117D02*
X212400D01*
Y179527D01*
X210039Y177166D01*
Y176575D01*
X282087Y179330D02*
X281497Y179921D01*
X280316D01*
X279726Y179330D01*
Y176969D01*
X280316Y176379D01*
X281497D01*
X282087Y176969D01*
X285039Y176379D02*
Y179921D01*
X283268Y178150D01*
X285630D01*
X289172Y179921D02*
X287991Y179330D01*
X286810Y178150D01*
Y176969D01*
X287401Y176379D01*
X288581D01*
X289172Y176969D01*
Y177559D01*
X288581Y178150D01*
X286810D01*
X325181Y234361D02*
X325771Y234952D01*
Y236133D01*
X325181Y236723D01*
X322819D01*
X322229Y236133D01*
Y234952D01*
X322819Y234361D01*
X322229Y231410D02*
X325771D01*
X324000Y233181D01*
Y230819D01*
X325771Y227277D02*
Y229639D01*
X324000D01*
X324590Y228458D01*
Y227868D01*
X324000Y227277D01*
X322819D01*
X322229Y227868D01*
Y229048D01*
X322819Y229639D01*
X231350Y27861D02*
X231940Y28452D01*
Y29632D01*
X231350Y30223D01*
X228989D01*
X228398Y29632D01*
Y28452D01*
X228989Y27861D01*
X228398Y24910D02*
X231940D01*
X230169Y26681D01*
Y24319D01*
X228398Y21368D02*
X231940D01*
X230169Y23139D01*
Y20777D01*
X179639Y12181D02*
X179048Y12771D01*
X177867D01*
X177277Y12181D01*
Y9819D01*
X177867Y9229D01*
X179048D01*
X179639Y9819D01*
X182590Y9229D02*
Y12771D01*
X180819Y11000D01*
X183181D01*
X184361Y12181D02*
X184952Y12771D01*
X186133D01*
X186723Y12181D01*
Y11590D01*
X186133Y11000D01*
X185542D01*
X186133D01*
X186723Y10410D01*
Y9819D01*
X186133Y9229D01*
X184952D01*
X184361Y9819D01*
X55315Y67520D02*
X54725Y66930D01*
Y65749D01*
X55315Y65159D01*
X57677D01*
X58267Y65749D01*
Y66930D01*
X57677Y67520D01*
X58267Y70472D02*
X54725D01*
X56496Y68701D01*
Y71063D01*
X58267Y74605D02*
Y72243D01*
X55906Y74605D01*
X55315D01*
X54725Y74014D01*
Y72834D01*
X55315Y72243D01*
X134229Y39366D02*
X133639Y39956D01*
X132458D01*
X131868Y39366D01*
Y37004D01*
X132458Y36414D01*
X133639D01*
X134229Y37004D01*
X137181Y36414D02*
Y39956D01*
X135410Y38185D01*
X137771D01*
X138952Y36414D02*
X140132D01*
X139542D01*
Y39956D01*
X138952Y39366D01*
X92639Y96181D02*
X92048Y96771D01*
X90868D01*
X90277Y96181D01*
Y93819D01*
X90868Y93229D01*
X92048D01*
X92639Y93819D01*
X95590Y93229D02*
Y96771D01*
X93819Y95000D01*
X96181D01*
X97361Y96181D02*
X97952Y96771D01*
X99133D01*
X99723Y96181D01*
Y93819D01*
X99133Y93229D01*
X97952D01*
X97361Y93819D01*
Y96181D01*
X80126Y69166D02*
X79536Y68576D01*
Y67395D01*
X80126Y66805D01*
X82488D01*
X83078Y67395D01*
Y68576D01*
X82488Y69166D01*
X80126Y70347D02*
X79536Y70937D01*
Y72118D01*
X80126Y72708D01*
X80717D01*
X81307Y72118D01*
Y71528D01*
Y72118D01*
X81897Y72708D01*
X82488D01*
X83078Y72118D01*
Y70937D01*
X82488Y70347D01*
Y73889D02*
X83078Y74479D01*
Y75660D01*
X82488Y76250D01*
X80126D01*
X79536Y75660D01*
Y74479D01*
X80126Y73889D01*
X80717D01*
X81307Y74479D01*
Y76250D01*
X103213Y102954D02*
X102623Y102363D01*
Y101182D01*
X103213Y100592D01*
X105574D01*
X106165Y101182D01*
Y102363D01*
X105574Y102954D01*
X103213Y104134D02*
X102623Y104725D01*
Y105905D01*
X103213Y106496D01*
X103803D01*
X104394Y105905D01*
Y105315D01*
Y105905D01*
X104984Y106496D01*
X105574D01*
X106165Y105905D01*
Y104725D01*
X105574Y104134D01*
X103213Y107676D02*
X102623Y108267D01*
Y109448D01*
X103213Y110038D01*
X103803D01*
X104394Y109448D01*
X104984Y110038D01*
X105574D01*
X106165Y109448D01*
Y108267D01*
X105574Y107676D01*
X104984D01*
X104394Y108267D01*
X103803Y107676D01*
X103213D01*
X104394Y108267D02*
Y109448D01*
X217181Y65535D02*
X217771Y66125D01*
Y67306D01*
X217181Y67896D01*
X214819D01*
X214229Y67306D01*
Y66125D01*
X214819Y65535D01*
X217181Y64354D02*
X217771Y63764D01*
Y62583D01*
X217181Y61993D01*
X216590D01*
X216000Y62583D01*
Y63173D01*
Y62583D01*
X215410Y61993D01*
X214819D01*
X214229Y62583D01*
Y63764D01*
X214819Y64354D01*
X217771Y60812D02*
Y58450D01*
X217181D01*
X214819Y60812D01*
X214229D01*
X126819Y103639D02*
X126229Y103048D01*
Y101867D01*
X126819Y101277D01*
X129181D01*
X129771Y101867D01*
Y103048D01*
X129181Y103639D01*
X126819Y104819D02*
X126229Y105410D01*
Y106590D01*
X126819Y107181D01*
X127410D01*
X128000Y106590D01*
Y106000D01*
Y106590D01*
X128590Y107181D01*
X129181D01*
X129771Y106590D01*
Y105410D01*
X129181Y104819D01*
X126229Y110723D02*
X126819Y109542D01*
X128000Y108361D01*
X129181D01*
X129771Y108952D01*
Y110133D01*
X129181Y110723D01*
X128590D01*
X128000Y110133D01*
Y108361D01*
X83276Y83181D02*
X82686Y83771D01*
X81505D01*
X80915Y83181D01*
Y80819D01*
X81505Y80229D01*
X82686D01*
X83276Y80819D01*
X84457Y83181D02*
X85047Y83771D01*
X86228D01*
X86818Y83181D01*
Y82590D01*
X86228Y82000D01*
X85638D01*
X86228D01*
X86818Y81410D01*
Y80819D01*
X86228Y80229D01*
X85047D01*
X84457Y80819D01*
X90361Y83771D02*
X87999D01*
Y82000D01*
X89180Y82590D01*
X89770D01*
X90361Y82000D01*
Y80819D01*
X89770Y80229D01*
X88590D01*
X87999Y80819D01*
X254639Y80681D02*
X254048Y81271D01*
X252868D01*
X252277Y80681D01*
Y78319D01*
X252868Y77729D01*
X254048D01*
X254639Y78319D01*
X255819Y80681D02*
X256410Y81271D01*
X257590D01*
X258181Y80681D01*
Y80090D01*
X257590Y79500D01*
X257000D01*
X257590D01*
X258181Y78910D01*
Y78319D01*
X257590Y77729D01*
X256410D01*
X255819Y78319D01*
X261133Y77729D02*
Y81271D01*
X259361Y79500D01*
X261723D01*
X111123Y18323D02*
X110532Y18913D01*
X109352D01*
X108761Y18323D01*
Y15961D01*
X109352Y15371D01*
X110532D01*
X111123Y15961D01*
X112303Y18323D02*
X112894Y18913D01*
X114075D01*
X114665Y18323D01*
Y17732D01*
X114075Y17142D01*
X113484D01*
X114075D01*
X114665Y16551D01*
Y15961D01*
X114075Y15371D01*
X112894D01*
X112303Y15961D01*
X115846Y18323D02*
X116436Y18913D01*
X117617D01*
X118207Y18323D01*
Y17732D01*
X117617Y17142D01*
X117026D01*
X117617D01*
X118207Y16551D01*
Y15961D01*
X117617Y15371D01*
X116436D01*
X115846Y15961D01*
X106681Y51361D02*
X107271Y51952D01*
Y53132D01*
X106681Y53723D01*
X104319D01*
X103729Y53132D01*
Y51952D01*
X104319Y51361D01*
X106681Y50181D02*
X107271Y49590D01*
Y48410D01*
X106681Y47819D01*
X106090D01*
X105500Y48410D01*
Y49000D01*
Y48410D01*
X104910Y47819D01*
X104319D01*
X103729Y48410D01*
Y49590D01*
X104319Y50181D01*
X103729Y44277D02*
Y46639D01*
X106090Y44277D01*
X106681D01*
X107271Y44868D01*
Y46048D01*
X106681Y46639D01*
X119229Y34291D02*
X118639Y34881D01*
X117458D01*
X116867Y34291D01*
Y31929D01*
X117458Y31339D01*
X118639D01*
X119229Y31929D01*
X120410Y34291D02*
X121000Y34881D01*
X122181D01*
X122771Y34291D01*
Y33701D01*
X122181Y33110D01*
X121590D01*
X122181D01*
X122771Y32520D01*
Y31929D01*
X122181Y31339D01*
X121000D01*
X120410Y31929D01*
X123952Y31339D02*
X125133D01*
X124542D01*
Y34881D01*
X123952Y34291D01*
X246358Y124448D02*
X246948Y125038D01*
Y126219D01*
X246358Y126810D01*
X243997D01*
X243406Y126219D01*
Y125038D01*
X243997Y124448D01*
X246358Y123267D02*
X246948Y122677D01*
Y121496D01*
X246358Y120906D01*
X245767D01*
X245177Y121496D01*
Y122087D01*
Y121496D01*
X244587Y120906D01*
X243997D01*
X243406Y121496D01*
Y122677D01*
X243997Y123267D01*
X246358Y119725D02*
X246948Y119135D01*
Y117954D01*
X246358Y117364D01*
X243997D01*
X243406Y117954D01*
Y119135D01*
X243997Y119725D01*
X246358D01*
X200752Y137261D02*
X200162Y136670D01*
Y135489D01*
X200752Y134899D01*
X203114D01*
X203704Y135489D01*
Y136670D01*
X203114Y137261D01*
X203704Y140803D02*
Y138441D01*
X201343Y140803D01*
X200752D01*
X200162Y140212D01*
Y139032D01*
X200752Y138441D01*
X203114Y141983D02*
X203704Y142574D01*
Y143755D01*
X203114Y144345D01*
X200752D01*
X200162Y143755D01*
Y142574D01*
X200752Y141983D01*
X201343D01*
X201933Y142574D01*
Y144345D01*
X200752Y161867D02*
X200162Y161276D01*
Y160096D01*
X200752Y159505D01*
X203114D01*
X203704Y160096D01*
Y161276D01*
X203114Y161867D01*
X203704Y165409D02*
Y163048D01*
X201343Y165409D01*
X200752D01*
X200162Y164819D01*
Y163638D01*
X200752Y163048D01*
Y166590D02*
X200162Y167180D01*
Y168361D01*
X200752Y168951D01*
X201343D01*
X201933Y168361D01*
X202523Y168951D01*
X203114D01*
X203704Y168361D01*
Y167180D01*
X203114Y166590D01*
X202523D01*
X201933Y167180D01*
X201343Y166590D01*
X200752D01*
X201933Y167180D02*
Y168361D01*
X247181Y270861D02*
X247771Y271452D01*
Y272633D01*
X247181Y273223D01*
X244819D01*
X244229Y272633D01*
Y271452D01*
X244819Y270861D01*
X244229Y267319D02*
Y269681D01*
X246590Y267319D01*
X247181D01*
X247771Y267910D01*
Y269090D01*
X247181Y269681D01*
X247771Y266139D02*
Y263777D01*
X247181D01*
X244819Y266139D01*
X244229D01*
X264639Y294681D02*
X264048Y295271D01*
X262867D01*
X262277Y294681D01*
Y292319D01*
X262867Y291729D01*
X264048D01*
X264639Y292319D01*
X268181Y291729D02*
X265819D01*
X268181Y294090D01*
Y294681D01*
X267590Y295271D01*
X266410D01*
X265819Y294681D01*
X271723Y295271D02*
X269361D01*
Y293500D01*
X270542Y294090D01*
X271132D01*
X271723Y293500D01*
Y292319D01*
X271132Y291729D01*
X269952D01*
X269361Y292319D01*
X287599Y272834D02*
X287009Y273425D01*
X285828D01*
X285238Y272834D01*
Y270473D01*
X285828Y269882D01*
X287009D01*
X287599Y270473D01*
X291141Y269882D02*
X288780D01*
X291141Y272244D01*
Y272834D01*
X290551Y273425D01*
X289370D01*
X288780Y272834D01*
X294093Y269882D02*
Y273425D01*
X292322Y271654D01*
X294684D01*
X252319Y275639D02*
X251729Y275048D01*
Y273868D01*
X252319Y273277D01*
X254681D01*
X255271Y273868D01*
Y275048D01*
X254681Y275639D01*
X255271Y279181D02*
Y276819D01*
X252910Y279181D01*
X252319D01*
X251729Y278590D01*
Y277410D01*
X252319Y276819D01*
Y280361D02*
X251729Y280952D01*
Y282133D01*
X252319Y282723D01*
X252910D01*
X253500Y282133D01*
Y281542D01*
Y282133D01*
X254090Y282723D01*
X254681D01*
X255271Y282133D01*
Y280952D01*
X254681Y280361D01*
X250402Y313765D02*
X249812Y313174D01*
Y311994D01*
X250402Y311403D01*
X252763D01*
X253354Y311994D01*
Y313174D01*
X252763Y313765D01*
X253354Y317307D02*
Y314945D01*
X250992Y317307D01*
X250402D01*
X249812Y316716D01*
Y315536D01*
X250402Y314945D01*
X253354Y320849D02*
Y318487D01*
X250992Y320849D01*
X250402D01*
X249812Y320258D01*
Y319078D01*
X250402Y318487D01*
X237729Y286260D02*
X237139Y286850D01*
X235958D01*
X235367Y286260D01*
Y283898D01*
X235958Y283308D01*
X237139D01*
X237729Y283898D01*
X241271Y283308D02*
X238910D01*
X241271Y285669D01*
Y286260D01*
X240681Y286850D01*
X239500D01*
X238910Y286260D01*
X242452Y283308D02*
X243633D01*
X243042D01*
Y286850D01*
X242452Y286260D01*
X209759Y305861D02*
X210350Y306452D01*
Y307632D01*
X209759Y308223D01*
X207398D01*
X206808Y307632D01*
Y306452D01*
X207398Y305861D01*
X206808Y302319D02*
Y304681D01*
X209169Y302319D01*
X209759D01*
X210350Y302910D01*
Y304090D01*
X209759Y304681D01*
Y301139D02*
X210350Y300548D01*
Y299367D01*
X209759Y298777D01*
X207398D01*
X206808Y299367D01*
Y300548D01*
X207398Y301139D01*
X209759D01*
X222681Y239566D02*
X223271Y240157D01*
Y241337D01*
X222681Y241928D01*
X220319D01*
X219729Y241337D01*
Y240157D01*
X220319Y239566D01*
X219729Y238386D02*
Y237205D01*
Y237795D01*
X223271D01*
X222681Y238386D01*
X220319Y235434D02*
X219729Y234843D01*
Y233663D01*
X220319Y233072D01*
X222681D01*
X223271Y233663D01*
Y234843D01*
X222681Y235434D01*
X222090D01*
X221500Y234843D01*
Y233072D01*
X198319Y262934D02*
X197729Y262343D01*
Y261163D01*
X198319Y260572D01*
X200681D01*
X201271Y261163D01*
Y262343D01*
X200681Y262934D01*
X201271Y264114D02*
Y265295D01*
Y264705D01*
X197729D01*
X198319Y264114D01*
Y267066D02*
X197729Y267657D01*
Y268837D01*
X198319Y269428D01*
X198910D01*
X199500Y268837D01*
X200090Y269428D01*
X200681D01*
X201271Y268837D01*
Y267657D01*
X200681Y267066D01*
X200090D01*
X199500Y267657D01*
X198910Y267066D01*
X198319D01*
X199500Y267657D02*
Y268837D01*
X190166Y275185D02*
X189576Y275775D01*
X188395D01*
X187805Y275185D01*
Y272823D01*
X188395Y272233D01*
X189576D01*
X190166Y272823D01*
X191347Y272233D02*
X192527D01*
X191937D01*
Y275775D01*
X191347Y275185D01*
X194299Y275775D02*
X196660D01*
Y275185D01*
X194299Y272823D01*
Y272233D01*
X224934Y286181D02*
X224343Y286771D01*
X223163D01*
X222572Y286181D01*
Y283819D01*
X223163Y283229D01*
X224343D01*
X224934Y283819D01*
X226115Y283229D02*
X227295D01*
X226705D01*
Y286771D01*
X226115Y286181D01*
X231428Y286771D02*
X230247Y286181D01*
X229066Y285000D01*
Y283819D01*
X229657Y283229D01*
X230837D01*
X231428Y283819D01*
Y284410D01*
X230837Y285000D01*
X229066D01*
X173681Y225566D02*
X174271Y226157D01*
Y227337D01*
X173681Y227928D01*
X171319D01*
X170729Y227337D01*
Y226157D01*
X171319Y225566D01*
X170729Y224385D02*
Y223205D01*
Y223795D01*
X174271D01*
X173681Y224385D01*
X170729Y219663D02*
X174271D01*
X172500Y221434D01*
Y219072D01*
X180181Y225291D02*
X180771Y225881D01*
Y227062D01*
X180181Y227652D01*
X177819D01*
X177229Y227062D01*
Y225881D01*
X177819Y225291D01*
X177229Y224110D02*
Y222929D01*
Y223520D01*
X180771D01*
X180181Y224110D01*
Y221158D02*
X180771Y220568D01*
Y219387D01*
X180181Y218797D01*
X179590D01*
X179000Y219387D01*
Y219977D01*
Y219387D01*
X178410Y218797D01*
X177819D01*
X177229Y219387D01*
Y220568D01*
X177819Y221158D01*
X146934Y234681D02*
X146343Y235271D01*
X145163D01*
X144572Y234681D01*
Y232319D01*
X145163Y231729D01*
X146343D01*
X146934Y232319D01*
X148115Y231729D02*
X149295D01*
X148705D01*
Y235271D01*
X148115Y234681D01*
X153428Y231729D02*
X151066D01*
X153428Y234090D01*
Y234681D01*
X152837Y235271D01*
X151657D01*
X151066Y234681D01*
X167704Y302370D02*
X168295Y302960D01*
Y304141D01*
X167704Y304731D01*
X165343D01*
X164752Y304141D01*
Y302960D01*
X165343Y302370D01*
X164752Y301189D02*
Y300008D01*
Y300599D01*
X168295D01*
X167704Y301189D01*
X164752Y298237D02*
Y297056D01*
Y297647D01*
X168295D01*
X167704Y298237D01*
X132319Y267934D02*
X131729Y267343D01*
Y266163D01*
X132319Y265572D01*
X134681D01*
X135271Y266163D01*
Y267343D01*
X134681Y267934D01*
X135271Y269114D02*
Y270295D01*
Y269705D01*
X131729D01*
X132319Y269114D01*
Y272066D02*
X131729Y272657D01*
Y273837D01*
X132319Y274428D01*
X134681D01*
X135271Y273837D01*
Y272657D01*
X134681Y272066D01*
X132319D01*
X72819Y296910D02*
X72229Y296319D01*
Y295139D01*
X72819Y294548D01*
X75181D01*
X75771Y295139D01*
Y296319D01*
X75181Y296910D01*
Y298090D02*
X75771Y298681D01*
Y299861D01*
X75181Y300452D01*
X72819D01*
X72229Y299861D01*
Y298681D01*
X72819Y298090D01*
X73410D01*
X74000Y298681D01*
Y300452D01*
X122410Y309181D02*
X121819Y309771D01*
X120639D01*
X120048Y309181D01*
Y306819D01*
X120639Y306229D01*
X121819D01*
X122410Y306819D01*
X123590Y309771D02*
X125952D01*
Y309181D01*
X123590Y306819D01*
Y306229D01*
X92410Y244181D02*
X91819Y244771D01*
X90639D01*
X90048Y244181D01*
Y241819D01*
X90639Y241229D01*
X91819D01*
X92410Y241819D01*
X95952Y244771D02*
X94771Y244181D01*
X93590Y243000D01*
Y241819D01*
X94181Y241229D01*
X95361D01*
X95952Y241819D01*
Y242410D01*
X95361Y243000D01*
X93590D01*
X124410Y270276D02*
X123819Y269685D01*
Y268505D01*
X124410Y267914D01*
X126771D01*
X127362Y268505D01*
Y269685D01*
X126771Y270276D01*
X123819Y273818D02*
Y271457D01*
X125591D01*
X125000Y272637D01*
Y273228D01*
X125591Y273818D01*
X126771D01*
X127362Y273228D01*
Y272047D01*
X126771Y271457D01*
X76654Y246106D02*
X76063Y246696D01*
X74883D01*
X74292Y246106D01*
Y243744D01*
X74883Y243154D01*
X76063D01*
X76654Y243744D01*
X79606Y243154D02*
Y246696D01*
X77834Y244925D01*
X80196D01*
X61418Y252618D02*
X60827Y253208D01*
X59646D01*
X59056Y252618D01*
Y250256D01*
X59646Y249666D01*
X60827D01*
X61418Y250256D01*
X62598Y252618D02*
X63189Y253208D01*
X64369D01*
X64960Y252618D01*
Y252027D01*
X64369Y251437D01*
X63779D01*
X64369D01*
X64960Y250847D01*
Y250256D01*
X64369Y249666D01*
X63189D01*
X62598Y250256D01*
X77154Y280311D02*
X76563Y280901D01*
X75383D01*
X74792Y280311D01*
Y277949D01*
X75383Y277359D01*
X76563D01*
X77154Y277949D01*
X80696Y277359D02*
X78334D01*
X80696Y279720D01*
Y280311D01*
X80106Y280901D01*
X78925D01*
X78334Y280311D01*
X111024Y327165D02*
X110433Y327755D01*
X109253D01*
X108662Y327165D01*
Y324803D01*
X109253Y324213D01*
X110433D01*
X111024Y324803D01*
X112204Y324213D02*
X113385D01*
X112795D01*
Y327755D01*
X112204Y327165D01*
X205548Y277229D02*
Y279590D01*
X206729Y280771D01*
X207910Y279590D01*
Y277229D01*
Y279000D01*
X205548D01*
X211452Y280771D02*
X209090D01*
Y279000D01*
X210271Y279590D01*
X210861D01*
X211452Y279000D01*
Y277819D01*
X210861Y277229D01*
X209681D01*
X209090Y277819D01*
X140048Y288229D02*
Y290590D01*
X141229Y291771D01*
X142410Y290590D01*
Y288229D01*
Y290000D01*
X140048D01*
X145361Y288229D02*
Y291771D01*
X143590Y290000D01*
X145952D01*
X167548Y277229D02*
Y279590D01*
X168729Y280771D01*
X169910Y279590D01*
Y277229D01*
Y279000D01*
X167548D01*
X171090Y280181D02*
X171681Y280771D01*
X172861D01*
X173452Y280181D01*
Y279590D01*
X172861Y279000D01*
X172271D01*
X172861D01*
X173452Y278410D01*
Y277819D01*
X172861Y277229D01*
X171681D01*
X171090Y277819D01*
X108875Y246449D02*
Y248811D01*
X110056Y249992D01*
X111236Y248811D01*
Y246449D01*
Y248220D01*
X108875D01*
X114779Y246449D02*
X112417D01*
X114779Y248811D01*
Y249401D01*
X114188Y249992D01*
X113007D01*
X112417Y249401D01*
X112599Y289567D02*
Y291929D01*
X113780Y293110D01*
X114961Y291929D01*
Y289567D01*
Y291339D01*
X112599D01*
X116141Y289567D02*
X117322D01*
X116732D01*
Y293110D01*
X116141Y292519D01*
X228508Y201630D02*
Y211472D01*
X204886D02*
X228508D01*
X204886Y201630D02*
Y211472D01*
Y201630D02*
X228508D01*
D13*
X381496Y233465D02*
X385433D01*
Y203937D02*
Y233465D01*
X379528Y203937D02*
X385433D01*
X365748D02*
X367323D01*
X365748Y233465D02*
X367323D01*
X189370Y60728D02*
Y79626D01*
X208268Y60728D02*
Y79626D01*
X58039Y214835D02*
X62370D01*
Y191213D02*
Y214835D01*
X8039Y191213D02*
X48039D01*
X8039D02*
Y214835D01*
X15913D01*
X190713Y169937D02*
X194650D01*
Y125055D02*
Y169937D01*
X190713Y125055D02*
X194650D01*
X175752Y169937D02*
X179689D01*
X175752Y125055D02*
Y169937D01*
Y125055D02*
X179689D01*
X168370Y90158D02*
X172898D01*
Y65354D02*
Y90158D01*
X168370Y65354D02*
X172898D01*
X148094Y90158D02*
X152622D01*
X148094Y65354D02*
Y90158D01*
Y65354D02*
X152622D01*
X77598Y17098D02*
X82126D01*
X77598D02*
Y41902D01*
X82126D01*
X97874Y17098D02*
X102402D01*
Y41902D01*
X97874D02*
X102402D01*
X0Y0D02*
Y358268D01*
X393701D01*
Y0D02*
Y358268D01*
X0Y0D02*
X393701D01*
X0D02*
X393701D01*
X283122Y153890D02*
X289516D01*
X283122D02*
Y165402D01*
X289516D01*
Y153890D02*
Y165402D01*
X285776Y153890D02*
X289516Y157630D01*
X307776Y214764D02*
X311516Y218504D01*
Y214764D02*
Y226181D01*
X305217D02*
X311516D01*
X305217Y214764D02*
Y226181D01*
Y214764D02*
X311516D01*
X330866Y221654D02*
X334606Y217913D01*
X330866D02*
X342362D01*
Y223031D01*
X330866D02*
X342362D01*
X330866Y217913D02*
Y223031D01*
X256890Y8858D02*
X270669D01*
X256890D02*
Y34449D01*
X270669D01*
Y8858D02*
Y34449D01*
X261614Y8858D02*
X270669Y17913D01*
X264094Y269406D02*
X275905D01*
Y257594D02*
Y269406D01*
X264094Y257594D02*
X275905D01*
X264094D02*
Y269406D01*
Y267437D02*
X266063Y269406D01*
X223807Y308461D02*
X228807Y313461D01*
X223807Y294153D02*
Y313461D01*
Y294153D02*
X239146D01*
Y313461D01*
X223807D02*
X239146D01*
X162823Y275528D02*
X178177D01*
Y241472D02*
Y275528D01*
X162823Y241472D02*
X178177D01*
X162823D02*
Y275528D01*
Y270528D02*
X167823Y275528D01*
X227559Y73622D02*
X242913D01*
Y54331D02*
Y73622D01*
X227559Y54331D02*
X242913D01*
X227559D02*
Y73622D01*
Y68622D02*
X232559Y73622D01*
X349913Y230020D02*
X353496Y233602D01*
Y230020D02*
Y240256D01*
X336661D02*
X353496D01*
X336661Y230020D02*
Y240256D01*
Y230020D02*
X353496D01*
X7717Y295744D02*
X33307D01*
Y235862D02*
Y295744D01*
X7717Y235862D02*
X33307D01*
X7717D02*
Y295744D01*
X385039Y112205D02*
Y162874D01*
X357638Y112205D02*
X385039D01*
X357638D02*
Y162874D01*
X385039D01*
X298819Y5906D02*
Y37402D01*
X342913D01*
Y5906D02*
Y37402D01*
X298819Y5906D02*
X342913D01*
X292421Y167913D02*
Y192717D01*
X342224D01*
Y167913D02*
Y192717D01*
X292421Y167913D02*
X342224D01*
X41063Y259461D02*
X48937D01*
Y254539D02*
Y259461D01*
X41063Y254539D02*
X48937D01*
X41063D02*
Y259461D01*
X327953Y81496D02*
Y84646D01*
Y81496D02*
X334252D01*
Y84646D01*
X327953D02*
X334252D01*
X220634Y173087D02*
X222602Y175055D01*
X220634Y135685D02*
Y175055D01*
Y135685D02*
X260004D01*
Y175055D01*
X220634D02*
X260004D01*
X107346Y68898D02*
X109315Y66929D01*
X107346D02*
X123094D01*
Y82677D01*
X107346D02*
X123094D01*
X107346Y66929D02*
Y82677D01*
X347965Y80610D02*
X349606Y82252D01*
Y80610D02*
Y85532D01*
X341732D02*
X349606D01*
X341732Y80610D02*
Y85532D01*
Y80610D02*
X349606D01*
X288976Y254528D02*
Y261417D01*
X285236Y254528D02*
Y261417D01*
X288976D01*
X285236Y254528D02*
X288976D01*
X195130Y34063D02*
X223870D01*
Y16937D02*
Y34063D01*
X195130Y16937D02*
X223870D01*
X195130D02*
Y34063D01*
Y29535D02*
X199657Y34063D01*
X61614Y64961D02*
Y74803D01*
Y64961D02*
X74213D01*
Y74803D01*
X61614D02*
X74213D01*
X57087Y255728D02*
X66929D01*
Y268327D01*
X57087D02*
X66929D01*
X57087Y255728D02*
Y268327D01*
X269291Y175197D02*
X277165D01*
X269291D02*
Y180118D01*
X277165D01*
Y175197D02*
Y180118D01*
X131220Y294094D02*
Y297244D01*
Y294094D02*
X137520D01*
Y297244D01*
X131220D02*
X137520D01*
X263815Y53122D02*
X303185D01*
X263815D02*
Y82650D01*
X273657Y92492D01*
X293342D01*
X303185Y82650D01*
Y53122D02*
Y82650D01*
X94846Y309945D02*
X99847Y314945D01*
X94846Y295638D02*
Y314945D01*
Y295638D02*
X110185D01*
Y314945D01*
X94846D02*
X110185D01*
X93331Y266653D02*
X98331Y271654D01*
X93331Y252346D02*
Y271654D01*
Y252346D02*
X108669D01*
Y271654D01*
X93331D02*
X108669D01*
X145350Y293791D02*
X151650D01*
X145350D02*
Y305209D01*
X151650D01*
Y293791D02*
Y305209D01*
X147909Y293791D02*
X151650Y297532D01*
X211331Y270153D02*
X216331Y275153D01*
X211331Y255847D02*
Y275153D01*
Y255847D02*
X226669D01*
Y275153D01*
X211331D02*
X226669D01*
X98819Y324410D02*
Y327559D01*
Y324410D02*
X105118D01*
Y327559D01*
X98819D02*
X105118D01*
X75039Y266331D02*
Y274205D01*
X79961D01*
Y266331D02*
Y274205D01*
X75039Y266331D02*
X79961D01*
X75039Y249563D02*
Y257437D01*
X79961D01*
Y249563D02*
Y257437D01*
X75039Y249563D02*
X79961D01*
X125197Y262992D02*
Y266142D01*
X118898D02*
X125197D01*
X118898Y262992D02*
Y266142D01*
Y262992D02*
X125197D01*
X96063Y246457D02*
Y249606D01*
X89764D02*
X96063D01*
X89764Y246457D02*
Y249606D01*
Y246457D02*
X96063D01*
X126260Y311417D02*
Y314567D01*
X119961D02*
X126260D01*
X119961Y311417D02*
Y314567D01*
Y311417D02*
X126260D01*
X119831Y254039D02*
X127705D01*
X119831D02*
Y258961D01*
X127705D01*
Y254039D02*
Y258961D01*
X78858Y296063D02*
Y299213D01*
Y296063D02*
X85158D01*
Y299213D01*
X78858D02*
X85158D01*
X131925Y262012D02*
X135075D01*
X131925Y255713D02*
Y262012D01*
Y255713D02*
X135075D01*
Y262012D01*
X159449Y297244D02*
X162598D01*
Y303543D01*
X159449D02*
X162598D01*
X159449Y297244D02*
Y303543D01*
X150925Y238850D02*
X154075D01*
Y245150D01*
X150925D02*
X154075D01*
X150925Y238850D02*
Y245150D01*
X177425Y230713D02*
X180575D01*
Y237012D01*
X177425D02*
X180575D01*
X177425Y230713D02*
Y237012D01*
X171425Y230713D02*
X174575D01*
Y237012D01*
X171425D02*
X174575D01*
X171425Y230713D02*
Y237012D01*
X146850Y256925D02*
Y260075D01*
Y256925D02*
X153150D01*
Y260075D01*
X146850D02*
X153150D01*
X223850Y277925D02*
Y281075D01*
Y277925D02*
X230150D01*
Y281075D01*
X223850D02*
X230150D01*
X194882Y266929D02*
Y270079D01*
X188583D02*
X194882D01*
X188583Y266929D02*
Y270079D01*
Y266929D02*
X194882D01*
X194787Y260425D02*
Y263575D01*
X188488D02*
X194787D01*
X188488Y260425D02*
Y263575D01*
Y260425D02*
X194787D01*
X221425Y251150D02*
X224575D01*
X221425Y244850D02*
Y251150D01*
Y244850D02*
X224575D01*
Y251150D01*
X211925Y300350D02*
X215075D01*
Y306650D01*
X211925D02*
X215075D01*
X211925Y300350D02*
Y306650D01*
X236350Y288425D02*
Y291575D01*
Y288425D02*
X242650D01*
Y291575D01*
X236350D02*
X242650D01*
X253543Y300689D02*
Y308563D01*
X248622Y300689D02*
X253543D01*
X248622D02*
Y308563D01*
X253543D01*
X252425Y271287D02*
X255575D01*
X252425Y264988D02*
Y271287D01*
Y264988D02*
X255575D01*
Y271287D01*
X292913Y265059D02*
Y268209D01*
X286614D02*
X292913D01*
X286614Y265059D02*
Y268209D01*
Y265059D02*
X292913D01*
X251004Y296358D02*
X258878D01*
Y291437D02*
Y296358D01*
X251004Y291437D02*
X258878D01*
X251004D02*
Y296358D01*
X248961Y253295D02*
Y261169D01*
X244039Y253295D02*
X248961D01*
X244039D02*
Y261169D01*
X248961D01*
X205279Y167378D02*
X208429D01*
X205279Y161079D02*
Y167378D01*
Y161079D02*
X208429D01*
Y167378D01*
X205279Y142772D02*
X208429D01*
X205279Y136472D02*
Y142772D01*
Y136472D02*
X208429D01*
Y142772D01*
X248622Y117835D02*
Y125709D01*
X253543D01*
Y117835D02*
Y125709D01*
X248622Y117835D02*
X253543D01*
X117063Y42461D02*
X124937D01*
Y37539D02*
Y42461D01*
X117063Y37539D02*
X124937D01*
X117063D02*
Y42461D01*
X108925Y46850D02*
X112075D01*
Y53150D01*
X108925D02*
X112075D01*
X108925Y46850D02*
Y53150D01*
X114961Y22063D02*
Y29937D01*
X110039Y22063D02*
X114961D01*
X110039D02*
Y29937D01*
X114961D01*
X258961Y66063D02*
Y73937D01*
X254039Y66063D02*
X258961D01*
X254039D02*
Y73937D01*
X258961D01*
X93350Y79925D02*
Y83075D01*
Y79925D02*
X99650D01*
Y83075D01*
X93350D02*
X99650D01*
X126441Y92008D02*
X129591D01*
Y98307D01*
X126441D02*
X129591D01*
X126441Y92008D02*
Y98307D01*
X214425Y70850D02*
X217575D01*
Y77150D01*
X214425D02*
X217575D01*
X214425Y70850D02*
Y77150D01*
X102819Y97953D02*
X105968D01*
X102819Y91654D02*
Y97953D01*
Y91654D02*
X105968D01*
Y97953D01*
X84925Y74512D02*
X88075D01*
X84925Y68213D02*
Y74512D01*
Y68213D02*
X88075D01*
Y74512D01*
X92213Y88425D02*
Y91575D01*
Y88425D02*
X98512D01*
Y91575D01*
X92213D02*
X98512D01*
X131079Y43386D02*
X140921D01*
Y55984D01*
X131079D02*
X140921D01*
X131079Y43386D02*
Y55984D01*
X190063Y13461D02*
X197937D01*
Y8539D02*
Y13461D01*
X190063Y8539D02*
X197937D01*
X190063D02*
Y13461D01*
X322539Y218602D02*
X325689D01*
Y224902D01*
X322539D02*
X325689D01*
X322539Y218602D02*
Y224902D01*
X210827Y171850D02*
Y175000D01*
X204528D02*
X210827D01*
X204528Y171850D02*
Y175000D01*
Y171850D02*
X210827D01*
X256988Y118799D02*
X260138D01*
Y125098D01*
X256988D02*
X260138D01*
X256988Y118799D02*
Y125098D01*
X293209Y210925D02*
X296358D01*
Y217224D01*
X293209D02*
X296358D01*
X293209Y210925D02*
Y217224D01*
X275787Y168701D02*
Y171850D01*
X269488D02*
X275787D01*
X269488Y168701D02*
Y171850D01*
Y168701D02*
X275787D01*
X223642Y124016D02*
Y127165D01*
Y124016D02*
X229941D01*
Y127165D01*
X223642D02*
X229941D01*
X209449Y124803D02*
X212598D01*
Y131102D01*
X209449D02*
X212598D01*
X209449Y124803D02*
Y131102D01*
X204528Y183465D02*
Y186614D01*
Y183465D02*
X210827D01*
Y186614D01*
X204528D02*
X210827D01*
X282051Y134012D02*
X289925D01*
Y129091D02*
Y134012D01*
X282051Y129091D02*
X289925D01*
X282051D02*
Y134012D01*
Y132370D02*
X283693Y134012D01*
X282445Y144839D02*
X290319D01*
Y139917D02*
Y144839D01*
X282445Y139917D02*
X290319D01*
X282445D02*
Y144839D01*
Y143197D02*
X284087Y144839D01*
X86835Y50382D02*
X90417Y53965D01*
Y50382D02*
Y60618D01*
X73583D02*
X90417D01*
X73583Y50382D02*
Y60618D01*
Y50382D02*
X90417D01*
X130882Y70165D02*
X134465Y66583D01*
X130882D02*
X141118D01*
Y83417D01*
X130882D02*
X141118D01*
X130882Y66583D02*
Y83417D01*
X225835Y85197D02*
X229417Y88779D01*
X225835Y78543D02*
Y88779D01*
Y78543D02*
X242669D01*
Y88779D01*
X225835D02*
X242669D01*
X342126Y64862D02*
X350000D01*
X342126D02*
Y69784D01*
X350000D01*
Y64862D02*
Y69784D01*
X348358Y64862D02*
X350000Y66504D01*
X286221Y23228D02*
X292520D01*
Y20079D02*
Y23228D01*
X286221Y20079D02*
X292520D01*
X286221D02*
Y23228D01*
X334055Y209350D02*
X340354D01*
Y206201D02*
Y209350D01*
X334055Y206201D02*
X340354D01*
X334055D02*
Y209350D01*
X252425Y253000D02*
Y259299D01*
X255575D01*
Y253000D02*
Y259299D01*
X252425Y253000D02*
X255575D01*
X158319Y17252D02*
X162059Y20992D01*
Y17252D02*
Y28748D01*
X156941D02*
X162059D01*
X156941Y17252D02*
Y28748D01*
Y17252D02*
X162059D01*
X98425Y333465D02*
X104724D01*
Y330315D02*
Y333465D01*
X98425Y330315D02*
X104724D01*
X98425D02*
Y333465D01*
X98819Y318110D02*
X105118D01*
X98819D02*
Y321260D01*
X105118D01*
Y318110D02*
Y321260D01*
X40803Y269461D02*
X48677D01*
Y264539D02*
Y269461D01*
X40803Y264539D02*
X48677D01*
X40803D02*
Y269461D01*
X84252Y308421D02*
Y314721D01*
X81102Y308421D02*
X84252D01*
X81102D02*
Y314721D01*
X84252D01*
X110425Y276500D02*
Y282799D01*
X113575D01*
Y276500D02*
Y282799D01*
X110425Y276500D02*
X113575D01*
X98032Y274803D02*
X104331D01*
X98032D02*
Y277953D01*
X104331D01*
Y274803D02*
Y277953D01*
X89961Y276732D02*
Y283032D01*
X93110D01*
Y276732D02*
Y283032D01*
X89961Y276732D02*
X93110D01*
X141732Y255512D02*
Y261811D01*
X138583Y255512D02*
X141732D01*
X138583D02*
Y261811D01*
X141732D01*
Y268504D02*
Y274803D01*
X138583Y268504D02*
X141732D01*
X138583D02*
Y274803D01*
X141732D01*
X152500Y308925D02*
X158799D01*
X152500D02*
Y312075D01*
X158799D01*
Y308925D02*
Y312075D01*
X139500Y308925D02*
X145799D01*
X139500D02*
Y312075D01*
X145799D01*
Y308925D02*
Y312075D01*
X147638Y268504D02*
Y274803D01*
X150787D01*
Y268504D02*
Y274803D01*
X147638Y268504D02*
X150787D01*
X146457Y253937D02*
X152756D01*
Y250787D02*
Y253937D01*
X146457Y250787D02*
X152756D01*
X146457D02*
Y253937D01*
X139850Y242925D02*
X146150D01*
X139850D02*
Y246075D01*
X146150D01*
Y242925D02*
Y246075D01*
X161075Y229850D02*
Y236150D01*
X157925Y229850D02*
X161075D01*
X157925D02*
Y236150D01*
X161075D01*
X164925Y229850D02*
Y236150D01*
X168075D01*
Y229850D02*
Y236150D01*
X164925Y229850D02*
X168075D01*
X188976Y250000D02*
X195276D01*
Y246850D02*
Y250000D01*
X188976Y246850D02*
X195276D01*
X188976D02*
Y250000D01*
X188850Y254425D02*
X195150D01*
X188850D02*
Y257575D01*
X195150D01*
Y254425D02*
Y257575D01*
X217575Y244701D02*
Y251000D01*
X214425Y244701D02*
X217575D01*
X214425D02*
Y251000D01*
X217575D01*
X228350Y248925D02*
X234650D01*
X228350D02*
Y252075D01*
X234650D01*
Y248925D02*
Y252075D01*
X259941Y301476D02*
Y307776D01*
X256791Y301476D02*
X259941D01*
X256791D02*
Y307776D01*
X259941D01*
X236925Y261350D02*
Y267650D01*
X240075D01*
Y261350D02*
Y267650D01*
X236925Y261350D02*
X240075D01*
X262575Y246500D02*
Y252799D01*
X259425Y246500D02*
X262575D01*
X259425D02*
Y252799D01*
X262575D01*
X269575Y246500D02*
Y252799D01*
X266425Y246500D02*
X269575D01*
X266425D02*
Y252799D01*
X269575D01*
X276575Y246500D02*
Y252799D01*
X273425Y246500D02*
X276575D01*
X273425D02*
Y252799D01*
X276575D01*
X301933Y129976D02*
X308232D01*
X301933D02*
Y133126D01*
X308232D01*
Y129976D02*
Y133126D01*
X301933Y140803D02*
X308232D01*
X301933D02*
Y143953D01*
X308232D01*
Y140803D02*
Y143953D01*
X205279Y148284D02*
Y154583D01*
X208429D01*
Y148284D02*
Y154583D01*
X205279Y148284D02*
X208429D01*
X228902Y185685D02*
Y191984D01*
X232051D01*
Y185685D02*
Y191984D01*
X228902Y185685D02*
X232051D01*
X235791D02*
Y191984D01*
X238941D01*
Y185685D02*
Y191984D01*
X235791Y185685D02*
X238941D01*
X221028D02*
Y191984D01*
X224177D01*
Y185685D02*
Y191984D01*
X221028Y185685D02*
X224177D01*
X118000Y50925D02*
X124299D01*
X118000D02*
Y54075D01*
X124299D01*
Y50925D02*
Y54075D01*
X254925Y46350D02*
Y52650D01*
X258075D01*
Y46350D02*
Y52650D01*
X254925Y46350D02*
X258075D01*
X239850Y48075D02*
X246150D01*
Y44925D02*
Y48075D01*
X239850Y44925D02*
X246150D01*
X239850D02*
Y48075D01*
X110425Y91500D02*
Y97799D01*
X113575D01*
Y91500D02*
Y97799D01*
X110425Y91500D02*
X113575D01*
X118567Y91535D02*
Y97835D01*
X121716D01*
Y91535D02*
Y97835D01*
X118567Y91535D02*
X121716D01*
X95075Y68350D02*
Y74650D01*
X91925Y68350D02*
X95075D01*
X91925D02*
Y74650D01*
X95075D01*
X98925Y68350D02*
Y74650D01*
X102075D01*
Y68350D02*
Y74650D01*
X98925Y68350D02*
X102075D01*
X209026Y44805D02*
X215325D01*
X209026D02*
Y47955D01*
X215325D01*
Y44805D02*
Y47955D01*
X224350Y44925D02*
X230650D01*
X224350D02*
Y48075D01*
X230650D01*
Y44925D02*
Y48075D01*
X333268Y65158D02*
Y68307D01*
X326969D02*
X333268D01*
X326969Y65158D02*
Y68307D01*
Y65158D02*
X333268D01*
X37598Y116969D02*
Y167638D01*
X10197Y116969D02*
X37598D01*
X10197D02*
Y167638D01*
X37598D01*
X357185Y196362D02*
X389370D01*
X357185D02*
Y241039D01*
X389370D01*
Y196362D02*
Y241039D01*
X187008Y82638D02*
X210630D01*
Y57717D02*
Y82638D01*
X187008Y57717D02*
X210630D01*
X187008D02*
Y82638D01*
X4102Y225465D02*
X66307D01*
Y178614D02*
Y225465D01*
X4102Y178614D02*
X66307D01*
X4102D02*
Y225465D01*
X285236Y257972D02*
X288976D01*
X287106Y256102D02*
Y259842D01*
X289272Y253248D02*
Y262697D01*
X284941Y253248D02*
Y262697D01*
X289272D01*
X284941Y253248D02*
X289272D01*
X198587Y114032D02*
Y180961D01*
X171815Y114032D02*
X198587D01*
X171815D02*
Y180961D01*
X198587D01*
X176835Y60039D02*
Y95472D01*
X144158Y60039D02*
X176835D01*
X144158D02*
Y95472D01*
X176835D01*
X73661Y11784D02*
Y47216D01*
X106339D01*
Y11784D02*
Y47216D01*
X73661Y11784D02*
X106339D01*
D14*
X277953Y152657D02*
X294685D01*
X277953D02*
Y166634D01*
X294685D01*
Y152657D02*
Y166634D01*
X316634Y213484D02*
Y227461D01*
X300098D02*
X316634D01*
X300098Y213484D02*
Y227461D01*
Y213484D02*
X316634D01*
X329646Y212795D02*
X343583D01*
Y228150D01*
X329646D02*
X343583D01*
X329646Y212795D02*
Y228150D01*
X247047Y7480D02*
X280512D01*
X247047D02*
Y35827D01*
X280512D01*
Y7480D02*
Y35827D01*
X257598Y270587D02*
X282402D01*
Y256413D02*
Y270587D01*
X257598Y256413D02*
X282402D01*
X257598D02*
Y270587D01*
X216811Y292980D02*
Y314634D01*
Y292980D02*
X246142D01*
Y314634D01*
X216811D02*
X246142D01*
X155835Y276709D02*
X185165D01*
Y240291D02*
Y276709D01*
X155835Y240291D02*
X185165D01*
X155835D02*
Y276709D01*
X220571Y74803D02*
X249902D01*
Y53150D02*
Y74803D01*
X220571Y53150D02*
X249902D01*
X220571D02*
Y74803D01*
X357520Y228740D02*
Y241535D01*
X332638D02*
X357520D01*
X332638Y228740D02*
Y241535D01*
Y228740D02*
X357520D01*
X6732Y296728D02*
X34291D01*
Y234878D02*
Y296728D01*
X6732Y234878D02*
X34291D01*
X6732D02*
Y296728D01*
X386024Y111221D02*
Y163858D01*
X356653Y111221D02*
X386024D01*
X356653D02*
Y163858D01*
X386024D01*
X297835Y4921D02*
Y38386D01*
X343898D01*
Y4921D02*
Y38386D01*
X297835Y4921D02*
X343898D01*
X291437Y166929D02*
Y193701D01*
X343209D01*
Y166929D02*
Y193701D01*
X291437Y166929D02*
X343209D01*
X38209Y260740D02*
X51791D01*
Y253260D02*
Y260740D01*
X38209Y253260D02*
X51791D01*
X38209D02*
Y260740D01*
X325394Y80118D02*
Y86024D01*
Y80118D02*
X336811D01*
Y86024D01*
X325394D02*
X336811D01*
X213843Y128894D02*
Y181846D01*
Y128894D02*
X266795D01*
Y181846D01*
X213843D02*
X266795D01*
X104886Y64468D02*
X125555D01*
Y85138D01*
X104886D02*
X125555D01*
X104886Y64468D02*
Y85138D01*
X352953Y78543D02*
Y87598D01*
X338386D02*
X352953D01*
X338386Y78543D02*
Y87598D01*
Y78543D02*
X352953D01*
X191783Y35342D02*
X227217D01*
Y15657D02*
Y35342D01*
X191783Y15657D02*
X227217D01*
X191783D02*
Y35342D01*
X59606Y63937D02*
Y75827D01*
Y63937D02*
X76221D01*
Y75827D01*
X59606D02*
X76221D01*
X56063Y253917D02*
X67953D01*
Y270138D01*
X56063D02*
X67953D01*
X56063Y253917D02*
Y270138D01*
X267461Y174153D02*
X278996D01*
X267461D02*
Y181161D01*
X278996D01*
Y174153D02*
Y181161D01*
X129567Y293228D02*
Y298110D01*
Y293228D02*
X139173D01*
Y298110D01*
X129567D02*
X139173D01*
X261453Y101547D02*
X305547D01*
X261453Y44067D02*
Y101547D01*
Y44067D02*
X305547D01*
Y101547D01*
X87850Y294465D02*
Y316118D01*
Y294465D02*
X117181D01*
Y316118D01*
X87850D02*
X117181D01*
X86335Y251173D02*
Y272827D01*
Y251173D02*
X115665D01*
Y272827D01*
X86335D02*
X115665D01*
X140232Y292512D02*
X156768D01*
X140232D02*
Y306488D01*
X156768D01*
Y292512D02*
Y306488D01*
X204335Y254673D02*
Y276327D01*
Y254673D02*
X233665D01*
Y276327D01*
X204335D02*
X233665D01*
X97165Y323543D02*
Y328425D01*
Y323543D02*
X106772D01*
Y328425D01*
X97165D02*
X106772D01*
X73996Y264500D02*
Y276035D01*
X81004D01*
Y264500D02*
Y276035D01*
X73996Y264500D02*
X81004D01*
X73996Y247732D02*
Y259268D01*
X81004D01*
Y247732D02*
Y259268D01*
X73996Y247732D02*
X81004D01*
X126850Y262126D02*
Y267008D01*
X117244D02*
X126850D01*
X117244Y262126D02*
Y267008D01*
Y262126D02*
X126850D01*
X97716Y245591D02*
Y250472D01*
X88110D02*
X97716D01*
X88110Y245591D02*
Y250472D01*
Y245591D02*
X97716D01*
X127913Y310551D02*
Y315433D01*
X118307D02*
X127913D01*
X118307Y310551D02*
Y315433D01*
Y310551D02*
X127913D01*
X118000Y252996D02*
X129535D01*
X118000D02*
Y260004D01*
X129535D01*
Y252996D02*
Y260004D01*
X77205Y295197D02*
Y300079D01*
Y295197D02*
X86811D01*
Y300079D01*
X77205D02*
X86811D01*
X131059Y263665D02*
X135941D01*
X131059Y254059D02*
Y263665D01*
Y254059D02*
X135941D01*
Y263665D01*
X158583Y295590D02*
X163465D01*
Y305197D01*
X158583D02*
X163465D01*
X158583Y295590D02*
Y305197D01*
X150059Y237197D02*
X154941D01*
Y246803D01*
X150059D02*
X154941D01*
X150059Y237197D02*
Y246803D01*
X176559Y229059D02*
X181441D01*
Y238665D01*
X176559D02*
X181441D01*
X176559Y229059D02*
Y238665D01*
X170559Y229059D02*
X175441D01*
Y238665D01*
X170559D02*
X175441D01*
X170559Y229059D02*
Y238665D01*
X145197Y256059D02*
Y260941D01*
Y256059D02*
X154803D01*
Y260941D01*
X145197D02*
X154803D01*
X222197Y277059D02*
Y281941D01*
Y277059D02*
X231803D01*
Y281941D01*
X222197D02*
X231803D01*
X196535Y266063D02*
Y270945D01*
X186929D02*
X196535D01*
X186929Y266063D02*
Y270945D01*
Y266063D02*
X196535D01*
X196441Y259559D02*
Y264441D01*
X186835D02*
X196441D01*
X186835Y259559D02*
Y264441D01*
Y259559D02*
X196441D01*
X220559Y252803D02*
X225441D01*
X220559Y243197D02*
Y252803D01*
Y243197D02*
X225441D01*
Y252803D01*
X211059Y298697D02*
X215941D01*
Y308303D01*
X211059D02*
X215941D01*
X211059Y298697D02*
Y308303D01*
X234697Y287559D02*
Y292441D01*
Y287559D02*
X244303D01*
Y292441D01*
X234697D02*
X244303D01*
X254587Y298858D02*
Y310394D01*
X247579Y298858D02*
X254587D01*
X247579D02*
Y310394D01*
X254587D01*
X251559Y272941D02*
X256441D01*
X251559Y263335D02*
Y272941D01*
Y263335D02*
X256441D01*
Y272941D01*
X294567Y264193D02*
Y269075D01*
X284961D02*
X294567D01*
X284961Y264193D02*
Y269075D01*
Y264193D02*
X294567D01*
X249173Y297402D02*
X260709D01*
Y290394D02*
Y297402D01*
X249173Y290394D02*
X260709D01*
X249173D02*
Y297402D01*
X250004Y251465D02*
Y263000D01*
X242996Y251465D02*
X250004D01*
X242996D02*
Y263000D01*
X250004D01*
X204413Y169032D02*
X209295D01*
X204413Y159425D02*
Y169032D01*
Y159425D02*
X209295D01*
Y169032D01*
X204413Y144425D02*
X209295D01*
X204413Y134819D02*
Y144425D01*
Y134819D02*
X209295D01*
Y144425D01*
X247579Y116004D02*
Y127539D01*
X254587D01*
Y116004D02*
Y127539D01*
X247579Y116004D02*
X254587D01*
X115232Y43504D02*
X126768D01*
Y36496D02*
Y43504D01*
X115232Y36496D02*
X126768D01*
X115232D02*
Y43504D01*
X108059Y45197D02*
X112941D01*
Y54803D01*
X108059D02*
X112941D01*
X108059Y45197D02*
Y54803D01*
X116004Y20232D02*
Y31768D01*
X108996Y20232D02*
X116004D01*
X108996D02*
Y31768D01*
X116004D01*
X260004Y64232D02*
Y75768D01*
X252996Y64232D02*
X260004D01*
X252996D02*
Y75768D01*
X260004D01*
X91697Y79059D02*
Y83941D01*
Y79059D02*
X101303D01*
Y83941D01*
X91697D02*
X101303D01*
X125575Y90354D02*
X130457D01*
Y99961D01*
X125575D02*
X130457D01*
X125575Y90354D02*
Y99961D01*
X213559Y69197D02*
X218441D01*
Y78803D01*
X213559D02*
X218441D01*
X213559Y69197D02*
Y78803D01*
X101953Y99606D02*
X106835D01*
X101953Y90000D02*
Y99606D01*
Y90000D02*
X106835D01*
Y99606D01*
X84059Y76165D02*
X88941D01*
X84059Y66559D02*
Y76165D01*
Y66559D02*
X88941D01*
Y76165D01*
X90559Y87559D02*
Y92441D01*
Y87559D02*
X100165D01*
Y92441D01*
X90559D02*
X100165D01*
X130055Y41378D02*
X141945D01*
Y57992D01*
X130055D02*
X141945D01*
X130055Y41378D02*
Y57992D01*
X188232Y14504D02*
X199768D01*
Y7496D02*
Y14504D01*
X188232Y7496D02*
X199768D01*
X188232D02*
Y14504D01*
X321673Y216949D02*
X326555D01*
Y226555D01*
X321673D02*
X326555D01*
X321673Y216949D02*
Y226555D01*
X212480Y170984D02*
Y175866D01*
X202874D02*
X212480D01*
X202874Y170984D02*
Y175866D01*
Y170984D02*
X212480D01*
X256122Y117146D02*
X261004D01*
Y126752D01*
X256122D02*
X261004D01*
X256122Y117146D02*
Y126752D01*
X292342Y209272D02*
X297224D01*
Y218878D01*
X292342D02*
X297224D01*
X292342Y209272D02*
Y218878D01*
X277441Y167835D02*
Y172716D01*
X267835D02*
X277441D01*
X267835Y167835D02*
Y172716D01*
Y167835D02*
X277441D01*
X221988Y123150D02*
Y128032D01*
Y123150D02*
X231594D01*
Y128032D01*
X221988D02*
X231594D01*
X208583Y123150D02*
X213465D01*
Y132756D01*
X208583D02*
X213465D01*
X208583Y123150D02*
Y132756D01*
X202874Y182598D02*
Y187480D01*
Y182598D02*
X212480D01*
Y187480D01*
X202874D02*
X212480D01*
X278705Y136079D02*
X293272D01*
Y127024D02*
Y136079D01*
X278705Y127024D02*
X293272D01*
X278705D02*
Y136079D01*
X279098Y146906D02*
X293665D01*
Y137850D02*
Y146906D01*
X279098Y137850D02*
X293665D01*
X279098D02*
Y146906D01*
X94441Y49102D02*
Y61898D01*
X69559D02*
X94441D01*
X69559Y49102D02*
Y61898D01*
Y49102D02*
X94441D01*
X129602Y62559D02*
X142398D01*
Y87441D01*
X129602D02*
X142398D01*
X129602Y62559D02*
Y87441D01*
X221811Y77264D02*
Y90059D01*
Y77264D02*
X246693D01*
Y90059D01*
X221811D02*
X246693D01*
X338779Y62795D02*
X353346D01*
X338779D02*
Y71850D01*
X353346D01*
Y62795D02*
Y71850D01*
X283661Y24606D02*
X295079D01*
Y18701D02*
Y24606D01*
X283661Y18701D02*
X295079D01*
X283661D02*
Y24606D01*
X331496Y210728D02*
X342913D01*
Y204823D02*
Y210728D01*
X331496Y204823D02*
X342913D01*
X331496D02*
Y210728D01*
X251047Y250441D02*
Y261858D01*
X256953D01*
Y250441D02*
Y261858D01*
X251047Y250441D02*
X256953D01*
X167177Y16032D02*
Y29969D01*
X151823D02*
X167177D01*
X151823Y16032D02*
Y29969D01*
Y16032D02*
X167177D01*
X95866Y334842D02*
X107283D01*
Y328937D02*
Y334842D01*
X95866Y328937D02*
X107283D01*
X95866D02*
Y334842D01*
X96260Y316732D02*
X107677D01*
X96260D02*
Y322638D01*
X107677D01*
Y316732D02*
Y322638D01*
X37949Y270740D02*
X51531D01*
Y263260D02*
Y270740D01*
X37949Y263260D02*
X51531D01*
X37949D02*
Y270740D01*
X85630Y305862D02*
Y317280D01*
X79724Y305862D02*
X85630D01*
X79724D02*
Y317280D01*
X85630D01*
X109047Y273941D02*
Y285358D01*
X114953D01*
Y273941D02*
Y285358D01*
X109047Y273941D02*
X114953D01*
X95472Y273425D02*
X106890D01*
X95472D02*
Y279331D01*
X106890D01*
Y273425D02*
Y279331D01*
X88583Y274173D02*
Y285591D01*
X94488D01*
Y274173D02*
Y285591D01*
X88583Y274173D02*
X94488D01*
X143110Y252953D02*
Y264370D01*
X137205Y252953D02*
X143110D01*
X137205D02*
Y264370D01*
X143110D01*
Y265945D02*
Y277362D01*
X137205Y265945D02*
X143110D01*
X137205D02*
Y277362D01*
X143110D01*
X149941Y307547D02*
X161358D01*
X149941D02*
Y313453D01*
X161358D01*
Y307547D02*
Y313453D01*
X136941Y307547D02*
X148358D01*
X136941D02*
Y313453D01*
X148358D01*
Y307547D02*
Y313453D01*
X146260Y265945D02*
Y277362D01*
X152165D01*
Y265945D02*
Y277362D01*
X146260Y265945D02*
X152165D01*
X143898Y255315D02*
X155315D01*
Y249409D02*
Y255315D01*
X143898Y249409D02*
X155315D01*
X143898D02*
Y255315D01*
X137291Y241547D02*
X148709D01*
X137291D02*
Y247453D01*
X148709D01*
Y241547D02*
Y247453D01*
X162453Y227291D02*
Y238709D01*
X156547Y227291D02*
X162453D01*
X156547D02*
Y238709D01*
X162453D01*
X163547Y227291D02*
Y238709D01*
X169453D01*
Y227291D02*
Y238709D01*
X163547Y227291D02*
X169453D01*
X186417Y251378D02*
X197835D01*
Y245472D02*
Y251378D01*
X186417Y245472D02*
X197835D01*
X186417D02*
Y251378D01*
X186291Y253047D02*
X197709D01*
X186291D02*
Y258953D01*
X197709D01*
Y253047D02*
Y258953D01*
X218953Y242142D02*
Y253559D01*
X213047Y242142D02*
X218953D01*
X213047D02*
Y253559D01*
X218953D01*
X225791Y247547D02*
X237209D01*
X225791D02*
Y253453D01*
X237209D01*
Y247547D02*
Y253453D01*
X261319Y298917D02*
Y310335D01*
X255413Y298917D02*
X261319D01*
X255413D02*
Y310335D01*
X261319D01*
X235547Y258791D02*
Y270209D01*
X241453D01*
Y258791D02*
Y270209D01*
X235547Y258791D02*
X241453D01*
X263953Y243941D02*
Y255358D01*
X258047Y243941D02*
X263953D01*
X258047D02*
Y255358D01*
X263953D01*
X270953Y243941D02*
Y255358D01*
X265047Y243941D02*
X270953D01*
X265047D02*
Y255358D01*
X270953D01*
X277953Y243941D02*
Y255358D01*
X272047Y243941D02*
X277953D01*
X272047D02*
Y255358D01*
X277953D01*
X299374Y128598D02*
X310791D01*
X299374D02*
Y134504D01*
X310791D01*
Y128598D02*
Y134504D01*
X299374Y139425D02*
X310791D01*
X299374D02*
Y145331D01*
X310791D01*
Y139425D02*
Y145331D01*
X203902Y145724D02*
Y157142D01*
X209807D01*
Y145724D02*
Y157142D01*
X203902Y145724D02*
X209807D01*
X227524Y183126D02*
Y194543D01*
X233429D01*
Y183126D02*
Y194543D01*
X227524Y183126D02*
X233429D01*
X234413D02*
Y194543D01*
X240319D01*
Y183126D02*
Y194543D01*
X234413Y183126D02*
X240319D01*
X219650D02*
Y194543D01*
X225555D01*
Y183126D02*
Y194543D01*
X219650Y183126D02*
X225555D01*
X115441Y49547D02*
X126858D01*
X115441D02*
Y55453D01*
X126858D01*
Y49547D02*
Y55453D01*
X253547Y43791D02*
Y55209D01*
X259453D01*
Y43791D02*
Y55209D01*
X253547Y43791D02*
X259453D01*
X237291Y49453D02*
X248709D01*
Y43547D02*
Y49453D01*
X237291Y43547D02*
X248709D01*
X237291D02*
Y49453D01*
X109047Y88941D02*
Y100358D01*
X114953D01*
Y88941D02*
Y100358D01*
X109047Y88941D02*
X114953D01*
X117189Y88976D02*
Y100394D01*
X123094D01*
Y88976D02*
Y100394D01*
X117189Y88976D02*
X123094D01*
X96453Y65791D02*
Y77209D01*
X90547Y65791D02*
X96453D01*
X90547D02*
Y77209D01*
X96453D01*
X97547Y65791D02*
Y77209D01*
X103453D01*
Y65791D02*
Y77209D01*
X97547Y65791D02*
X103453D01*
X206467Y43427D02*
X217884D01*
X206467D02*
Y49333D01*
X217884D01*
Y43427D02*
Y49333D01*
X221791Y43547D02*
X233209D01*
X221791D02*
Y49453D01*
X233209D01*
Y43547D02*
Y49453D01*
X335827Y63779D02*
Y69685D01*
X324410D02*
X335827D01*
X324410Y63779D02*
Y69685D01*
Y63779D02*
X335827D01*
X38583Y115984D02*
Y168622D01*
X9213Y115984D02*
X38583D01*
X9213D02*
Y168622D01*
X38583D01*
M02*
