M48
;Layer_Color=9474304
;FILE_FORMAT=2:5
INCH,LZ
;TYPE=PLATED
T1F00S00C0.00787
T2F00S00C0.00984
T3F00S00C0.01968
T4F00S00C0.02800
T5F00S00C0.03150
T6F00S00C0.03937
T7F00S00C0.04331
T8F00S00C0.04724
T9F00S00C0.06162
T10F00S00C0.06299
T11F00S00C0.12598
;TYPE=NON_PLATED
T12F00S00C0.04724
%
T01
X0270811Y0147965
X0298031Y0157502
Y016047
X0240945Y0154724
X0243307Y0151181
X0245669Y0147638
X0237402Y0172047
X0249606Y0188189
X0255118
X0195276Y0184252
X0126681Y0071
X0073228Y0081693
X0268Y0240268
X027126Y0240158
X0275Y0240354
T02
X0011811Y0031496
Y0047244
X0027559
X0043307
Y0031496
Y0019685
X0027559Y0031496
X0145669Y0035433
Y0043307
X0153543
X0165354
Y0035433
X0170866Y0029974
Y0019609
X0177165Y0035433
Y0043307
X0168898Y0055118
X0236221Y0027559
Y0015748
X0350394Y0011811
Y0023622
X0362205
X0366142Y0035433
Y0047244
X038189
Y0035433
X0350394
X0346457Y0047244
X0326772
X0357087Y0067323
X0318504Y0092913
X0294882Y0159449
X0286221Y0159646
X0292618Y0184252
X0338976Y0166142
X0380217Y0213681
X0266142Y0184646
X0225441Y0182348
X022441Y0169291
X0217564Y0175713
X022441Y0155512
X0208661Y0098425
Y0086614
X019685
Y0098425
X0181102Y0102362
X0173228
X0161417
X0165354Y011811
X0153543
X0133858
X0122047
X0117815Y0077264
X0112805Y0077219
X011522Y0074803
X0113091Y007185
X0117815
X0115766Y0062852
X0255906Y0086614
Y0098425
X0106299Y011811
X0094488
X0082677
X0070866
X0059055Y0110236
Y0094488
X0043307
Y007874
X0048228Y0069882
X0027559Y0062992
Y007874
Y0094488
X0011811
Y007874
Y0062992
X0100119Y0062873
X0034843Y0227756
X0133858Y0244882
X0142913Y0251575
X0129528Y0263779
X0145669Y0279134
X0238667Y0255512
X025748Y0256693
X0267717Y0263386
X0258268Y0286221
X0265516Y0226378
X0229921Y0244094
X022559Y0240551
X0360236Y0234156
X0360155Y0219105
X0360022Y021602
T03
X0333957Y0199213
X0134359Y0092421
X0145276Y0081505
X0090158Y0237795
X0084646Y0288583
X0137008Y0288976
X0120079Y0270866
X0120372Y0319585
X0165878Y03105
X0211811Y0313779
X021985Y0273
X0168272Y02585
T04
X02085Y0011
X0209026Y0039974
T05
X0365158Y0209941
Y0227461
T06
X0301575Y0176378
Y0184252
X0309449
X0317323
Y0176378
X0309449
X0325197
X0333071
Y0184252
X0325197
T07
X0375Y0123031
Y0133031
Y0143032
Y0153032
X0027559Y0157795
Y0147795
Y0137795
Y0127795
X0015748Y024661
Y0256453
Y0266295
Y0276138
Y028598
T08
X0017095Y0203024
T09
X0373425Y0204921
Y023248
T10
X0311024Y0021654
X0330709
T11
X0015748Y0015748
X0377953
X0015748Y034252
X0377953
T12
X0044653Y0203024
M30
